<svg width="187" height="41" viewBox="0 0 187 41" fill="none" xmlns="http://www.w3.org/2000/svg">
<path d="M15.1077 0.57798C16.2206 0.57798 17.3335 0.57798 18.4801 0.57798C18.6656 0.919943 18.851 1.26191 19.0421 1.61423C21.0907 2.07585 22.6548 2.25498 24.6628 1.61423C24.6628 1.9562 24.6628 2.29816 24.6628 2.65048C25.4048 2.65048 26.1467 2.65048 26.9111 2.65048C27.1893 3.16343 27.1893 3.16343 27.4732 3.68674C28.0644 3.50507 28.6556 3.3234 29.2648 3.13623C31.2927 2.67654 32.2655 2.62322 34.218 3.16861C34.4962 3.93803 34.4962 3.93803 34.78 4.72299C36.1712 4.97946 36.1712 4.97946 37.5904 5.24112C37.5904 5.92504 37.5904 6.60897 37.5904 7.31362C38.5178 7.65558 39.4452 7.99755 40.4007 8.34987C40.471 12.3006 40.471 12.3006 39.8387 14.0493C40.1285 14.2416 40.4183 14.434 40.7169 14.6322C41.5249 15.6036 41.5249 15.6036 41.3141 17.2228C41.1402 17.9601 41.1402 17.9601 40.9628 18.7124C41.1483 18.8834 41.3338 19.0544 41.5249 19.2305C41.9106 22.417 41.3511 24.674 39.8387 27.5205C39.8387 28.6378 40.0896 29.5539 40.4007 30.6293C39.8443 30.9713 39.2878 31.3132 38.7145 31.6656C37.5738 34.4933 37.5738 34.4933 38.1525 37.3649C35.5874 37.8255 33.1079 37.9589 30.5031 37.9519C30.098 37.9526 29.6928 37.9532 29.2755 37.954C27.9721 37.9549 26.6688 37.9517 25.3654 37.9478C24.9244 37.9474 24.4833 37.9469 24.0289 37.9464C17.6684 37.9386 11.3334 37.8374 4.99045 37.3649C5.09913 36.9542 5.20781 36.5434 5.31978 36.1202C5.39658 35.6761 5.47338 35.2319 5.55251 34.7743C4.79144 33.9432 4.79144 33.9432 3.86631 33.2199C3.55015 32.2161 3.55015 32.2161 3.30424 31.1474C2.94646 30.449 2.57577 29.7558 2.18011 29.0749C2.55107 28.733 2.92204 28.391 3.30424 28.0387C3.03761 27.654 2.77098 27.2693 2.49627 26.8729C0.696604 23.9531 0.914995 20.992 0.880323 17.7085C0.864021 17.1959 0.847719 16.6833 0.830923 16.1552C0.795113 12.3792 0.795113 12.3792 2.0857 10.388C3.30424 9.38613 3.30424 9.38613 4.99045 8.34987C4.61948 7.83693 4.24852 7.32398 3.86631 6.79549C6.73201 3.87576 10.4075 2.66463 14.5456 2.13236C14.7311 1.61941 14.9166 1.10647 15.1077 0.57798Z" fill="#2B2221"/>
<path d="M10.1911 2.3578C10.5678 2.53276 10.9444 2.70773 11.3325 2.888C10.2981 3.71644 10.2981 3.71644 9.04965 4.47861C8.48463 4.30364 7.91962 4.12867 7.33749 3.94841C7.33749 4.47331 7.33749 4.99821 7.33749 5.53901C8.65585 5.18908 9.97421 4.83915 11.3325 4.47861C11.3259 4.79847 11.3193 5.11833 11.3125 5.44789C11.3073 5.87163 11.3022 6.29538 11.2969 6.73197C11.2902 7.15025 11.2836 7.56853 11.2768 7.99949C11.2867 9.24139 11.2867 9.24139 11.6357 10.3771C11.993 11.7047 11.6853 12.7115 11.3325 14.0223C9.44915 13.8473 7.56578 13.6723 5.62533 13.4921C5.62533 14.3669 5.62533 15.2417 5.62533 16.1431C6.0844 16.4821 6.54348 16.8211 7.01646 17.1703C8.47893 18.2639 8.47893 18.2639 8.94264 19.987C8.97795 20.4682 9.01326 20.9494 9.04965 21.4451C10.5563 21.6201 12.063 21.795 13.6154 21.9753C13.5856 21.4863 13.5856 21.4863 13.5552 20.9874C13.5398 20.5589 13.5243 20.1303 13.5084 19.6888C13.4786 19.0522 13.4786 19.0522 13.4482 18.4027C13.6154 17.2035 13.6154 17.2035 14.3712 16.2528C15.3276 15.6129 15.3276 15.6129 17.0397 15.6129C17.095 18.5009 17.1131 21.2537 16.469 24.0961C14.774 23.9212 13.0789 23.7462 11.3325 23.5659C11.5797 24.233 11.8269 24.9 12.0816 25.5873C12.2902 26.1502 12.2902 26.1502 12.5029 26.7244C13.0842 27.8865 13.7807 28.5116 14.7568 29.3982C14.7568 29.7481 14.7568 30.098 14.7568 30.4586C16.8285 30.8085 18.9003 31.1584 21.0347 31.519C20.7522 29.9443 20.7522 29.9443 20.464 28.3377C20.8407 28.3377 21.2174 28.3377 21.6055 28.3377C21.6055 31.3122 21.6055 34.2866 21.6055 37.3512C22.1705 37.1762 22.7355 37.0013 23.3176 36.821C23.3044 36.1505 23.2911 35.48 23.2775 34.7892C23.2668 33.909 23.2564 33.0288 23.2463 32.1486C23.2367 31.7067 23.2272 31.2649 23.2173 30.8096C23.2118 30.1714 23.2118 30.1714 23.2062 29.5203C23.1972 28.9331 23.1972 28.9331 23.188 28.334C23.3176 27.2773 23.3176 27.2773 24.4591 25.6867C24.8357 25.6867 25.2124 25.6867 25.6005 25.6867C25.6005 26.3866 25.6005 27.0865 25.6005 27.8075C27.1072 27.8075 28.6139 27.8075 30.1663 27.8075C30.1663 27.1077 30.1663 26.4078 30.1663 25.6867C32.7088 25.4243 32.7088 25.4243 35.3027 25.1565C35.3027 25.6814 35.3027 26.2063 35.3027 26.7471C34.9496 26.8784 34.5965 27.0096 34.2326 27.1448C32.9201 27.7011 32.9201 27.7011 32.5918 28.9011C32.2387 29.4096 32.2387 29.4096 31.8784 29.9284C28.9552 30.5071 27.4507 30.4842 24.4591 29.9284C24.4591 32.2029 24.4591 34.4775 24.4591 36.821C25.0241 36.821 25.5891 36.821 26.1712 36.821C26.1712 34.8964 26.1712 32.9717 26.1712 30.9888C29.3458 31.7261 29.3458 31.7261 30.5943 33.3415C32.5021 35.3601 34.8361 35.6912 37.5856 36.2908C37.8681 35.7659 37.8681 35.7659 38.1563 35.2304C38.4388 36.2802 38.4388 36.2802 38.727 37.3512C36.1225 37.8225 33.6049 37.959 30.9599 37.9518C30.5486 37.9525 30.1372 37.9532 29.7134 37.9539C28.39 37.9549 27.0666 37.9516 25.7432 37.9477C25.2953 37.9472 24.8475 37.9467 24.3861 37.9463C17.9277 37.9383 11.4952 37.8347 5.05461 37.3512C5.16497 36.9309 5.27532 36.5105 5.38902 36.0775C5.467 35.623 5.54499 35.1685 5.62533 34.7002C4.85255 33.8497 4.85255 33.8497 3.91318 33.1096C3.59215 32.0823 3.59215 32.0823 3.34246 30.9888C2.97917 30.2741 2.60277 29.5647 2.20102 28.868C2.57769 28.518 2.95437 28.1681 3.34246 27.8075C3.07172 27.4139 2.80099 27.0202 2.52205 26.6146C0.694682 23.6267 0.916435 20.5966 0.88123 17.2366C0.864677 16.7121 0.848124 16.1875 0.831069 15.647C0.794708 11.7831 0.794708 11.7831 2.10515 9.74543C3.34246 8.72023 3.34246 8.72023 5.05461 7.65983C4.67794 7.13493 4.30126 6.61002 3.91318 6.06922C5.69529 4.23934 7.67825 3.13594 10.1911 2.3578Z" fill="#2A1615"/>
<path d="M16.2747 0.57798C17.3467 0.57798 18.4187 0.57798 19.5232 0.57798C19.7019 0.944042 19.8805 1.3101 20.0646 1.68726C22.038 2.1814 23.5446 2.37316 25.4789 1.68726C25.4789 2.05332 25.4789 2.41938 25.4789 2.79654C26.1935 2.79654 26.9082 2.79654 27.6446 2.79654C27.8232 3.1626 28.0019 3.52866 28.186 3.90581C28.7555 3.71134 29.325 3.51687 29.9118 3.31651C31.8652 2.82443 32.8023 2.76735 34.6831 3.35117C34.9511 4.17481 34.9511 4.17481 35.2245 5.01509C36.5645 5.28964 36.5645 5.28964 37.9316 5.56973C37.9316 6.30185 37.9316 7.03398 37.9316 7.78828C39.2716 8.33738 39.2716 8.33738 40.6387 8.89756C40.7064 13.1267 40.7064 13.1267 40.0973 14.9986C40.516 15.2903 40.516 15.2903 40.9433 15.5879C41.7216 16.6625 41.7216 16.6625 41.5524 18.7077C41.4295 19.314 41.3067 19.9203 41.1801 20.545C39.0191 21.131 37.3608 21.29 35.2245 20.545C34.7211 19.5492 34.2192 18.5522 33.7483 17.54C33.1056 16.5475 33.1056 16.5475 31.8617 16.3224C30.5304 16.196 30.5304 16.196 29.2286 16.201C28.8846 16.1703 28.5405 16.1395 28.186 16.1079C28.0073 15.7418 27.8286 15.3757 27.6446 14.9986C28.2448 14.965 28.845 14.9314 29.4634 14.8968C30.2558 14.8499 31.0482 14.803 31.8406 14.7559C32.2356 14.7341 32.6306 14.7123 33.0376 14.6899C34.9144 14.5762 36.6611 14.3967 38.473 13.8893C38.473 13.1572 38.473 12.4251 38.473 11.6708C38.1836 12.0302 37.8943 12.3897 37.5961 12.7601C35.9702 14.1847 35.1287 14.1783 33.0123 14.2078C32.3743 14.2232 31.7364 14.2385 31.0792 14.2544C30.0826 14.2624 30.0826 14.2624 29.0658 14.2706C27.7531 14.2941 26.4404 14.3193 25.1278 14.3465C24.5461 14.3527 23.9645 14.3589 23.3652 14.3653C21.4165 14.4226 21.4165 14.4226 18.4404 14.9986C18.619 12.2531 18.7977 9.50766 18.9818 6.67901C18.4458 6.49598 17.9098 6.31294 17.3575 6.12437C17.3575 5.75831 17.3575 5.39224 17.3575 5.01509C16.6428 4.83206 15.9281 4.64903 15.1918 4.46045C15.1918 4.09439 15.1918 3.72833 15.1918 3.35117C14.2985 3.35117 13.4051 3.35117 12.4847 3.35117C14.109 2.2419 14.109 2.2419 15.7332 2.2419C15.9119 1.6928 16.0906 1.14371 16.2747 0.57798Z" fill="#662234"/>
<path d="M11.7621 2.3578C12.2159 2.38116 12.6697 2.40453 13.1373 2.42861C13.1373 2.80248 13.1373 3.17636 13.1373 3.56156C13.4836 3.61998 13.8299 3.6784 14.1867 3.73859C15.7178 4.20937 16.2359 4.56299 17.1904 5.82748C17.3804 7.56454 17.3804 7.56454 17.3352 9.545C17.3262 10.2 17.3172 10.855 17.308 11.5299C17.1904 13.1917 17.1904 13.1917 16.6114 14.3247C17.1083 14.1413 17.6053 13.958 18.1173 13.7691C20.1112 13.1842 21.7095 13.04 23.7835 13.0169C24.4698 13.0027 25.1561 12.9884 25.8632 12.9737C27.3017 12.9537 28.7402 12.9361 30.1787 12.9206C30.8628 12.9057 31.5469 12.8907 32.2517 12.8753C33.1873 12.8638 33.1873 12.8638 34.1418 12.8522C35.9093 12.5978 36.406 12.3034 37.4561 10.9258C38.1369 9.73625 38.1369 9.73625 38.6141 8.65988C38.827 11.7842 38.827 11.7842 37.818 13.0855C35.7666 14.5521 33.7604 14.5081 31.304 14.6433C30.895 14.6678 30.4859 14.6922 30.0645 14.7174C29.0544 14.7775 28.0441 14.8346 27.0337 14.8911C27.8757 15.5045 27.8757 15.5045 28.7346 16.1303C30.102 17.2321 30.4697 17.6036 31.0145 19.3168C31.0384 19.7257 31.0623 20.1346 31.0869 20.5559C30.5136 20.5559 29.9404 20.5559 29.3498 20.5559C29.3617 20.9766 29.3737 21.3972 29.386 21.8305C28.7708 23.3883 28.7708 23.3883 27.6127 24.0013C26.6811 24.3679 25.7406 24.7137 24.7923 25.0369C23.231 25.8188 22.9449 26.298 22.4016 27.9202C22.2354 29.1898 22.118 30.4662 22.0397 31.7439C21.9964 32.407 21.9531 33.07 21.9085 33.7531C21.8801 34.2585 21.8518 34.7638 21.8225 35.2844C21.6315 35.2844 21.4404 35.2844 21.2435 35.2844C21.1807 33.8321 21.135 32.3825 21.0988 30.9296C21.0697 30.3167 21.0697 30.3167 21.04 29.6915C20.9994 27.5168 21.0856 26.4684 22.293 24.5744C23.7501 23.21 25.1895 22.468 27.0337 21.6889C27.0337 20.1934 27.0337 18.6979 27.0337 17.1571C26.6516 16.9701 26.2694 16.7832 25.8757 16.5906C25.6846 16.9645 25.4935 17.3383 25.2967 17.7235C24.8667 17.6067 24.4368 17.4899 23.9939 17.3695C22.1827 17.1279 21.6338 17.442 20.0855 18.29C20.0571 18.9721 20.0288 19.6541 19.9995 20.3568C19.9561 21.2493 19.9124 22.1418 19.8684 23.0343C19.8415 23.709 19.8415 23.709 19.8141 24.3974C19.6377 27.7918 19.6377 27.7918 18.3484 29.0531C18.3484 25.6882 18.3484 22.3234 18.3484 18.8565C17.9663 18.8565 17.5841 18.8565 17.1904 18.8565C17.1904 21.6606 17.1904 24.4646 17.1904 27.3537C16.8082 27.3537 16.4261 27.3537 16.0324 27.3537C16.0324 23.8019 16.0324 20.25 16.0324 16.5906C13.1091 17.8797 13.1091 17.8797 12.7279 19.5712C12.7077 20.0247 12.6876 20.4782 12.6668 20.9454C12.6254 21.6322 12.6254 21.6322 12.5831 22.3328C12.5708 22.8553 12.5708 22.8553 12.5582 23.3883C9.46201 23.3387 9.46201 23.3387 7.92609 22.8219C6.9128 20.91 6.9128 20.91 6.18903 18.8565C5.77105 18.5527 5.35307 18.249 4.92242 17.936C4.5761 17.6789 4.22977 17.4219 3.87295 17.1571C3.69201 15.6701 3.69201 15.6701 3.87295 14.3247C4.06403 14.1377 4.2551 13.9508 4.45197 13.7582C5.33509 13.8088 6.21614 13.8972 7.09375 14.006C7.57218 14.0637 8.05062 14.1214 8.54356 14.1808C8.91302 14.2283 9.28248 14.2758 9.66314 14.3247C10.2511 12.0008 10.2511 12.0008 9.66314 9.79284C9.58547 8.279 9.63814 6.77775 9.66314 5.261C9.30488 5.35447 8.94661 5.44794 8.57748 5.54424C7.34707 5.82748 7.34707 5.82748 6.18903 5.82748C6.18903 5.26667 6.18903 4.70585 6.18903 4.12804C6.64283 4.05794 7.09664 3.98784 7.5642 3.91561C9.45099 3.47611 9.81064 2.44871 11.7621 2.3578Z" fill="#51160E"/>
<path d="M23.6259 15.7486C24.0062 15.8945 24.3865 16.0404 24.7784 16.1907C25.4025 16.1907 26.0267 16.1907 26.6697 16.1907C27.0451 18.9739 27.0451 18.9739 26.6697 20.5434C25.6267 21.6196 24.5699 22.3619 23.3451 23.1406C23.0379 23.3608 22.7307 23.581 22.4142 23.8079C22.4142 24.167 22.4142 24.5261 22.4142 24.8961C22.9116 24.3743 22.9116 24.3743 23.419 23.8419C24.8864 22.6306 25.8405 22.3656 27.6154 22.1757C27.7715 21.2779 27.9275 20.3802 28.0883 19.4552C28.7124 19.2757 29.3365 19.0961 29.9796 18.9111C29.9796 20.7066 29.9796 22.5021 29.9796 24.352C28.1072 24.352 26.2347 24.352 24.3056 24.352C23.1658 27.6309 22.82 29.9531 22.8575 33.4654C22.8596 33.8449 22.8618 34.2243 22.864 34.6152C22.8695 35.5469 22.878 36.4785 22.8871 37.41C21.9509 37.6794 21.9509 37.6794 20.9957 37.9541C20.9957 34.9018 20.9957 31.8495 20.9957 28.7047C20.6837 28.7047 20.3716 28.7047 20.0501 28.7047C20.2061 29.782 20.3621 30.8593 20.5229 31.9692C15.3701 31.2888 15.3701 31.2888 13.4655 28.5772C12.6646 27.0625 12.5754 25.5482 12.4847 23.8079C13.889 23.9875 15.2933 24.167 16.7402 24.352C16.7402 23.2747 16.7402 22.1974 16.7402 21.0875C16.8962 21.0875 17.0523 21.0875 17.213 21.0875C17.213 22.7034 17.213 24.3193 17.213 25.9842C17.5251 25.9842 17.8372 25.9842 18.1587 25.9842C18.1587 23.291 18.1587 20.5978 18.1587 17.823C18.4708 17.823 18.7829 17.823 19.1044 17.823C19.2604 20.6957 19.4165 23.5685 19.5772 26.5283C19.639 23.9652 19.639 23.9652 19.6755 21.4016C19.7614 19.3029 20.0344 18.3897 21.1804 16.7348C22.4142 15.6466 22.4142 15.6466 23.6259 15.7486Z" fill="#932C21"/>
<path d="M4.92334 25.4954C8.13149 25.6753 9.34462 26.4434 11.4469 28.3554C11.8994 28.6995 12.352 29.0436 12.8183 29.3981C13.819 30.2621 13.819 30.2621 13.819 31.2154C15.9718 31.53 18.1246 31.8446 20.3426 32.1688C20.1469 31.225 19.9512 30.2812 19.7495 29.3087C20.1409 29.3087 20.5323 29.3087 20.9356 29.3087C20.9356 31.9829 20.9356 34.657 20.9356 37.4121C21.5227 37.2548 22.1099 37.0975 22.7148 36.9354C22.701 36.3326 22.6872 35.7299 22.6731 35.1088C22.6619 34.3175 22.6511 33.5261 22.6406 32.7348C22.6307 32.3375 22.6208 31.9403 22.6105 31.531C22.6067 31.1485 22.6029 30.766 22.5989 30.3719C22.5927 30.02 22.5865 29.668 22.5801 29.3054C22.7148 28.3554 22.7148 28.3554 23.9009 26.9254C24.2923 26.9254 24.6837 26.9254 25.0869 26.9254C25.0869 27.5546 25.0869 28.1838 25.0869 28.8321C26.6526 28.8321 28.2182 28.8321 29.8313 28.8321C29.8313 28.2029 29.8313 27.5737 29.8313 26.9254C32.4734 26.6895 32.4734 26.6895 35.1688 26.4487C35.1688 26.9206 35.1688 27.3925 35.1688 27.8787C34.6183 28.0557 34.6183 28.0557 34.0568 28.2362C32.6929 28.7364 32.6929 28.7364 32.3518 29.8152C32.1071 30.12 31.8625 30.4247 31.6105 30.7388C28.5729 31.2591 27.0095 31.2385 23.9009 30.7388C23.9009 32.7837 23.9009 34.8286 23.9009 36.9354C24.488 36.9354 25.0751 36.9354 25.68 36.9354C25.68 35.2051 25.68 33.4748 25.68 31.6921C28.9788 32.3549 28.9788 32.3549 30.2761 33.8073C32.2586 35.622 34.6838 35.9197 37.5409 36.4588C37.7366 36.1442 37.9324 35.8296 38.134 35.5054C38.4276 36.4492 38.4276 36.4492 38.727 37.4121C36.0206 37.8358 33.4045 37.9585 30.656 37.9521C30.2286 37.9527 29.8012 37.9533 29.3608 37.954C27.9856 37.9549 26.6104 37.9519 25.2352 37.9483C24.7699 37.9479 24.3045 37.9475 23.825 37.9471C17.1139 37.9399 10.4298 37.8468 3.73724 37.4121C4.0308 36.7042 4.0308 36.7042 4.33029 35.9821C4.33029 36.2967 4.33029 36.6113 4.33029 36.9354C6.67876 36.9354 9.02723 36.9354 11.4469 36.9354C11.4469 36.6208 11.4469 36.3062 11.4469 35.9821C11.8383 35.9821 12.2297 35.9821 12.633 35.9821C12.633 36.2967 12.633 36.6113 12.633 36.9354C13.4035 36.8666 14.1741 36.7978 14.9681 36.7269C15.4015 36.6882 15.835 36.6495 16.2816 36.6096C17.3841 36.5451 17.3841 36.5451 17.9704 35.9821C17.9945 35.1879 17.9957 34.3929 17.9704 33.5988C17.6195 33.4599 17.2686 33.321 16.9071 33.1779C13.7286 31.8527 11.8445 30.6196 9.66772 28.3554C9.0806 28.1981 8.49348 28.0408 7.88858 27.8787C7.69287 28.5079 7.49716 29.1371 7.29553 29.7854C6.90412 29.1562 6.51271 28.527 6.10943 27.8787C6.50084 27.8787 6.89226 27.8787 7.29553 27.8787C6.51271 27.0922 5.72988 26.3057 4.92334 25.4954Z" fill="#21050D"/>
<path d="M15.8865 0.57798C16.8487 0.57798 17.8109 0.57798 18.8023 0.57798C18.9627 0.91683 19.123 1.25568 19.2883 1.6048C21.0595 2.06221 22.4118 2.23971 24.148 1.6048C24.148 1.94365 24.148 2.2825 24.148 2.63161C24.7894 2.63161 25.4309 2.63161 26.0918 2.63161C26.9423 3.65843 26.9423 3.65843 27.5497 4.68525C27.229 5.0241 26.9083 5.36295 26.5778 5.71207C26.4783 6.69522 26.4783 6.69522 26.5474 7.7657C26.6256 9.71839 26.6256 9.71839 26.0918 10.8462C27.3748 11.0156 28.6578 11.185 29.9796 11.3596C29.9796 11.6984 29.9796 12.0373 29.9796 12.3864C29.4114 12.4115 28.8432 12.4367 28.2578 12.4626C27.5054 12.5011 26.7531 12.5399 26.0007 12.5789C25.627 12.5948 25.2534 12.6107 24.8684 12.627C22.7936 12.7399 21.2052 13.0158 19.2883 13.9266C18.8072 13.9266 18.326 13.9266 17.8304 13.9266C17.9907 11.3852 18.1511 8.84386 18.3163 6.22547C17.8352 6.05605 17.3541 5.88662 16.8584 5.71207C16.8584 5.37322 16.8584 5.03437 16.8584 4.68525C16.2169 4.51582 15.5755 4.3464 14.9145 4.17184C14.9145 3.83299 14.9145 3.49414 14.9145 3.14502C14.1127 3.14502 13.3108 3.14502 12.4847 3.14502C13.9426 2.11821 13.9426 2.11821 15.4005 2.11821C15.5609 1.60993 15.7213 1.10166 15.8865 0.57798Z" fill="#431010"/>
<path d="M38.1105 9.47707C38.2808 9.47707 38.451 9.47707 38.6264 9.47707C38.8161 12.5055 38.8161 12.5055 37.917 13.7668C36.0893 15.1884 34.3017 15.1458 32.113 15.2769C31.5663 15.3124 31.5663 15.3124 31.0086 15.3487C30.1086 15.407 29.2084 15.4623 28.3081 15.5171C28.8082 15.9135 29.3083 16.3098 29.8236 16.7182C31.042 17.7861 31.3696 18.1463 31.855 19.8069C31.8763 20.2032 31.8976 20.5996 31.9195 21.008C31.4088 21.008 30.898 21.008 30.3718 21.008C30.3824 21.4157 30.3931 21.8234 30.404 22.2435C29.8559 23.7535 29.8559 23.7535 28.824 24.3476C27.9939 24.703 27.1559 25.0382 26.311 25.3514C24.9198 26.1094 24.6649 26.5738 24.1808 28.1462C24.0328 29.3769 23.9282 30.6141 23.8583 31.8526C23.8198 32.4953 23.7812 33.138 23.7415 33.8001C23.7162 34.2899 23.6909 34.7798 23.6649 35.2844C23.4946 35.2844 23.3244 35.2844 23.149 35.2844C23.093 33.8767 23.0522 32.4716 23.02 31.0633C22.994 30.4692 22.994 30.4692 22.9676 29.8632C22.9314 27.7552 23.0083 26.739 24.0841 24.9031C25.3823 23.5806 26.6649 22.8614 28.3081 22.1062C28.3081 20.6566 28.3081 19.207 28.3081 17.7135C27.9676 17.5322 27.6271 17.351 27.2763 17.1644C27.106 17.5268 26.9358 17.8892 26.7604 18.2625C26.1858 18.0927 26.1858 18.0927 25.5996 17.9194C23.9858 17.6852 23.4967 17.9896 22.1171 18.8116C22.0919 19.4727 22.0666 20.1338 22.0406 20.815C22.0018 21.6801 21.9629 22.5452 21.9237 23.4103C21.9077 23.8463 21.8917 24.2823 21.8753 24.7315C21.7181 28.0218 21.7181 28.0218 20.5694 29.2444C20.5694 25.9828 20.5694 22.7212 20.5694 19.3607C20.2289 19.3607 19.8884 19.3607 19.5376 19.3607C19.5376 22.0787 19.5376 24.7967 19.5376 27.5971C19.1971 27.5971 18.8565 27.5971 18.5057 27.5971C18.4499 25.915 18.409 24.235 18.3767 22.5523C18.3595 22.0777 18.3422 21.6031 18.3243 21.1142C18.291 18.8011 18.3097 17.5125 19.4489 15.4892C21.2852 13.7351 22.8859 13.7945 25.261 13.754C26.1857 13.7306 26.1857 13.7306 27.1292 13.7068C28.431 13.6782 29.7329 13.6539 31.0348 13.6339C31.6513 13.6169 32.2678 13.5999 32.903 13.5824C33.4686 13.5715 34.0342 13.5606 34.617 13.5494C36.0509 13.4443 36.0509 13.4443 36.995 12.5558C37.6827 11.5437 37.9123 10.7005 38.1105 9.47707Z" fill="#C0894E"/>
<path d="M33.5434 2.3578C33.5664 3.09914 33.5653 3.8412 33.5434 4.58257C33.0034 5.02752 33.0034 5.02752 31.1135 5.22219C30.178 5.34608 30.178 5.34608 29.2236 5.47247C29.0455 5.76614 28.8673 6.05981 28.6837 6.36238C29.2182 6.21555 29.7528 6.06871 30.3036 5.91743C34.2099 5.71305 34.2099 5.71305 35.9732 6.58486C36.2405 6.80511 36.5078 7.02536 36.7832 7.25229C36.605 8.1333 36.4268 9.01431 36.2432 9.92202C35.7086 9.92202 35.1741 9.92202 34.6233 9.92202C34.6233 10.2157 34.6233 10.5094 34.6233 10.8119C34.9797 10.9588 35.3361 11.1056 35.7032 11.2569C31.2485 11.2569 26.7938 11.2569 22.2041 11.2569C22.2041 11.11 22.2041 10.9632 22.2041 10.8119C25.2333 10.8119 28.2625 10.8119 31.3835 10.8119C31.3835 10.5183 31.3835 10.2246 31.3835 9.92202C29.958 9.77518 28.5325 9.62835 27.0638 9.47706C27.0198 8.77294 26.9885 8.06826 26.9625 7.36353C26.9343 6.77504 26.9343 6.77504 26.9056 6.17467C27.0942 4.80721 27.5519 4.24248 28.6837 3.2477C30.501 2.47975 31.4527 2.3578 33.5434 2.3578Z" fill="#87172C"/>
<path d="M7.81939 29.055C8.58916 29.2345 9.35894 29.414 10.152 29.5989C10.152 29.9578 10.152 30.3167 10.152 30.6865C10.5249 30.8436 10.8978 31.0006 11.2819 31.1624C12.4847 31.7742 12.4847 31.7742 13.0679 32.8619C13.8334 33.2142 14.6134 33.5395 15.4005 33.8476C17.6577 34.8437 17.6577 34.8437 18.3163 36.5327C18.3163 36.9365 18.3163 37.3403 18.3163 37.7564C17.739 37.9358 17.1617 38.1153 16.5668 38.3002C15.7893 37.7564 15.0117 37.2125 14.2342 36.6687C13.6569 36.8482 13.0795 37.0276 12.4847 37.2125C12.4847 36.4947 12.4847 35.7768 12.4847 35.0372C12.0998 35.0372 11.7149 35.0372 11.3184 35.0372C11.3184 35.5756 11.3184 36.114 11.3184 36.6687C10.5486 36.8482 9.77882 37.0276 8.98571 37.2125C9.56304 37.7509 10.1404 38.2893 10.7352 38.844C8.81076 38.844 6.88633 38.844 4.90357 38.844C4.81938 38.4402 4.73518 38.0364 4.64844 37.6204C4.37763 36.3858 4.07627 35.169 3.73724 33.9495C4.12213 33.9495 4.50702 33.9495 4.90357 33.9495C4.90357 33.2317 4.90357 32.5138 4.90357 31.7742C5.67335 31.5947 6.44312 31.4153 7.23622 31.2304C7.42867 30.5125 7.62111 29.7947 7.81939 29.055Z" fill="#123051"/>
<path d="M36.4592 29.055C36.8987 29.0867 37.3383 29.1183 37.7911 29.1509C37.411 29.6569 37.0308 30.1629 36.6392 30.6843C37.9697 30.6843 39.3001 30.6843 40.6709 30.6843C39.9107 32.0758 39.1504 33.4673 38.3671 34.9011C34.6431 34.7729 32.9247 34.3891 30.3036 32.601C30.3036 32.348 30.3036 32.095 30.3036 31.8343C29.1632 31.5813 28.0228 31.3283 26.8478 31.0676C26.8478 32.4592 26.8478 33.8507 26.8478 35.2844C26.2776 35.2844 25.7074 35.2844 25.1199 35.2844C25.1199 33.6399 25.1199 31.9953 25.1199 30.3009C30.9133 30.2635 30.9133 30.2635 32.6074 30.3009C32.7975 30.4274 32.9876 30.5539 33.1834 30.6843C33.4091 30.4313 33.6348 30.1782 33.8674 29.9176C34.9113 29.1509 34.9113 29.1509 36.4592 29.055Z" fill="#561120"/>
<path d="M11.2944 2.3578C11.7515 2.38062 12.2086 2.40344 12.6795 2.42696C12.6795 2.79214 12.6795 3.15733 12.6795 3.53358C13.2208 3.61917 13.2208 3.61917 13.773 3.70649C15.0123 4.08689 15.0123 4.08689 16.1787 5.74682C16.7225 9.0146 16.1462 10.5023 14.1375 13.2165C13.4674 14.054 12.7903 14.8867 12.0963 15.7064C9.68905 12.2806 8.94942 9.28259 9.18031 5.19351C8.81945 5.28481 8.4586 5.37611 8.08681 5.47017C6.84752 5.74682 6.84752 5.74682 5.68112 5.74682C5.68112 5.19905 5.68112 4.65127 5.68112 4.08689C6.1382 4.01842 6.59528 3.94995 7.06622 3.8794C8.96662 3.45011 9.32887 2.4466 11.2944 2.3578Z" fill="#CF4D21"/>
<path d="M24.148 2.3578C26.0724 2.60252 26.0724 2.60252 28.0357 2.85219C28.0357 3.66794 28.0357 4.48369 28.0357 5.32416C26.7528 5.81361 26.7528 5.81361 25.4439 6.31294C25.8715 6.63924 26.2992 6.96554 26.7398 7.30173C27.0233 8.50681 27.0233 8.50681 26.7398 9.7737C24.886 10.8823 23.9272 11.2569 21.5561 11.2569C21.3423 10.9306 21.1285 10.6043 20.9082 10.2681C20.0529 10.4312 19.1976 10.5944 18.3163 10.7625C18.5302 9.13099 18.744 7.49949 18.9643 5.81855C19.3919 5.81855 19.8196 5.81855 20.2602 5.81855C20.0464 5.49225 19.8326 5.16595 19.6122 4.82976C19.1846 4.82976 18.7569 4.82976 18.3163 4.82976C18.3163 4.34031 18.3163 3.85086 18.3163 3.34658C20.0269 3.50973 21.7376 3.67288 23.5 3.84098C23.7138 3.35153 23.9277 2.86208 24.148 2.3578Z" fill="#574550"/>
<path d="M7.07992 5.93849C8.64133 6.05071 9.5098 6.22862 10.5408 6.73834C10.5408 6.97378 10.5408 7.20922 10.5408 7.4518C7.46611 7.56952 7.46611 7.56952 4.32929 7.68962C4.32929 8.55289 4.32929 9.41617 4.32929 10.3056C5.07467 10.3056 5.82006 10.3056 6.58803 10.3056C6.58803 10.5411 6.58803 10.7765 6.58803 11.0191C5.6563 11.0975 4.72457 11.176 3.76461 11.2569C3.76461 11.0999 3.76461 10.943 3.76461 10.7812C3.20557 10.8597 2.64653 10.9382 2.07055 11.0191C2.2569 10.4697 2.44325 9.92035 2.63524 9.35434C2.0762 9.35434 1.51716 9.35434 0.941187 9.35434C0.743374 8.29215 0.662652 7.46389 1.75292 6.48566C3.60261 5.89666 4.80866 5.88334 7.07992 5.93849Z" fill="#13427C"/>
<path d="M2.97358 26.3853C4.37508 26.5141 4.37508 26.5141 5.92411 26.9002C7.18192 28.5205 7.10432 29.616 7.10432 31.5345C6.32538 31.5345 5.54644 31.5345 4.74389 31.5345C4.74389 32.2142 4.74389 32.8939 4.74389 33.5942C4.35442 33.5942 3.96495 33.5942 3.56368 33.5942C4.00184 34.1837 4.00184 34.1837 4.44884 34.785C5.334 36.1689 5.334 36.1689 5.334 37.7136C6.89188 37.7136 8.44976 37.7136 10.0548 37.7136C9.27591 37.2038 8.49697 36.6941 7.69442 36.1689C8.86283 36.1689 10.0312 36.1689 11.2351 36.1689C11.2351 35.6591 11.2351 35.1493 11.2351 34.6241C11.6245 34.6241 12.014 34.6241 12.4153 34.6241C12.4153 35.3038 12.4153 35.9835 12.4153 36.6838C13.1942 36.3439 13.9731 36.0041 14.7757 35.6539C15.3599 36.1637 15.9441 36.6735 16.546 37.1987C16.9355 36.6889 17.3249 36.1792 17.7262 35.6539C18.095 36.6194 18.095 36.6194 18.3163 37.7136C17.1361 38.7435 17.1361 38.7435 15.9882 38.844C14.7972 38.8105 13.6062 38.777 12.4153 38.7435C12.4153 38.4036 12.4153 38.0638 12.4153 37.7136C12.0258 37.7136 11.6363 37.7136 11.2351 37.7136C11.2351 38.0535 11.2351 38.3933 11.2351 38.7435C8.89824 38.7435 6.56142 38.7435 4.15379 38.7435C3.95905 37.8938 3.76432 37.0442 3.56368 36.1689C3.36895 35.8396 3.17421 35.5104 2.97358 35.1712C2.21995 33.8149 2.02553 32.5053 1.79337 31.0196C2.5723 31.0196 3.35124 31.0196 4.15379 31.0196C4.15379 30.5099 4.15379 30.0001 4.15379 29.4749C3.76432 29.4749 3.37485 29.4749 2.97358 29.4749C2.97358 28.4553 2.97358 27.4358 2.97358 26.3853Z" fill="#3C1E2B"/>
<path d="M22.227 15.7064C22.8923 15.8578 22.8923 15.8578 23.5709 16.0123C25.327 16.3912 25.327 16.3912 27.6026 16.3182C28.1801 19.3838 28.1801 19.3838 27.6026 21.2127C22.773 25.4954 22.773 25.4954 20.4352 25.4954C20.3866 24.3232 20.352 23.1504 20.3232 21.9775C20.3024 21.3245 20.2816 20.6715 20.2602 19.9987C20.4526 17.97 20.896 17.1808 22.227 15.7064Z" fill="#722B1F"/>
<path d="M23.905 15.7064C25.8476 15.7292 26.6526 15.8303 28.3934 16.8153C29.5337 18.2127 29.8336 19.0705 29.9796 20.8695C29.445 20.8695 28.9105 20.8695 28.3597 20.8695C28.3708 21.2811 28.382 21.6928 28.3934 22.1169C27.8197 23.6416 27.8197 23.6416 26.7398 24.2415C25.871 24.6003 24.9939 24.9387 24.1096 25.255C22.6536 26.0203 22.3868 26.4893 21.8801 28.0769C21.7252 29.3196 21.6157 30.5687 21.5426 31.8193C21.5023 32.4682 21.4619 33.1171 21.4203 33.7857C21.3938 34.2803 21.3674 34.7749 21.3401 35.2844C21.162 35.2844 20.9838 35.2844 20.8002 35.2844C20.7416 33.8631 20.6989 32.4443 20.6652 31.0223C20.6471 30.6224 20.629 30.2226 20.6103 29.8106C20.5725 27.6821 20.6529 26.6561 21.7789 24.8024C23.1377 23.467 24.48 22.7408 26.1998 21.9783C26.1998 20.5146 26.1998 19.051 26.1998 17.5429C25.8435 17.36 25.4871 17.177 25.1199 16.9885C24.9417 17.3544 24.7635 17.7204 24.5799 18.0974C24.1679 17.983 23.7558 17.8687 23.3313 17.7508C21.7619 17.3578 21.7619 17.3578 20.2602 18.6518C20.8517 15.9624 21.2085 15.7842 23.905 15.7064Z" fill="#E1817A"/>
<path d="M25.1199 29.945C28.389 30.1134 30.4859 30.7647 33.2335 32.1783C33.7502 32.4296 33.7502 32.4296 34.2774 32.6861C35.1344 33.1141 35.9621 33.5803 36.7832 34.0522C36.7832 34.3233 36.7832 34.5944 36.7832 34.8737C33.5044 34.7363 31.9915 34.3252 29.6838 32.4093C29.6838 32.1382 29.6838 31.8672 29.6838 31.5879C28.6797 31.3168 27.6757 31.0457 26.6412 30.7664C26.6412 32.2573 26.6412 33.7483 26.6412 35.2844C26.1392 35.2844 25.6371 35.2844 25.1199 35.2844C25.1199 33.5224 25.1199 31.7604 25.1199 29.945Z" fill="#D08352"/>
<path d="M29.9796 19.2661C29.9796 20.8208 29.9796 22.3755 29.9796 23.9773C28.269 23.9773 26.5584 23.9773 24.7959 23.9773C24.5108 24.7547 24.2257 25.5321 23.932 26.333C23.7894 26.4884 23.6469 26.6439 23.5 26.8041C23.3977 28.4039 23.3288 30.0003 23.2764 31.6028C23.1602 34.2417 23.1602 34.2417 22.2041 35.2844C22.2392 33.7626 22.2879 32.2416 22.3391 30.7203C22.3488 30.2907 22.3586 29.861 22.3686 29.4183C22.5177 25.3528 22.5177 25.3528 23.932 23.5062C25.3366 22.5806 26.1726 22.0928 27.8197 22.0928C27.9623 21.3155 28.1048 20.5381 28.2517 19.7372C29.5476 19.2661 29.5476 19.2661 29.9796 19.2661Z" fill="#C32E51"/>
<path d="M33.0695 21.9358C33.2737 22.3134 33.478 22.6909 33.6884 23.0799C34.7097 23.2058 35.731 23.3317 36.7832 23.4613C36.5789 24.0906 36.3747 24.7199 36.1642 25.3683C31.9863 26.1787 31.9863 26.1787 30.5937 25.7497C30.5937 26.2531 30.5937 26.7565 30.5937 27.2752C28.9597 27.2752 27.3257 27.2752 25.6421 27.2752C24.9458 25.4636 24.9458 25.4636 25.6421 24.6055C28.0932 24.6055 30.5442 24.6055 33.0695 24.6055C33.0695 23.7245 33.0695 22.8435 33.0695 21.9358Z" fill="#711E37"/>
<path d="M28.0357 15.9113C31.0505 15.6381 31.0505 15.6381 32.6303 15.9113C34.9276 18.3046 34.9276 18.3046 34.9276 20.0736C36.0648 20.0736 37.202 20.0736 38.3736 20.0736C38.3736 20.417 38.3736 20.7604 38.3736 21.1141C36.8574 21.1141 35.3412 21.1141 33.779 21.1141C33.779 21.4575 33.779 21.8009 33.779 22.1547C36.0533 22.3264 38.3277 22.4981 40.6709 22.675C40.2919 23.0184 39.9128 23.3618 39.5223 23.7156C37.9025 23.7034 37.9025 23.7034 36.0045 23.5205C35.3752 23.4628 34.7459 23.4051 34.0976 23.3457C33.6134 23.2961 33.1292 23.2464 32.6303 23.1953C32.4911 22.8439 32.352 22.4924 32.2086 22.1303C30.7934 18.6247 30.7934 18.6247 28.0357 15.9113Z" fill="#20313F"/>
<path d="M10.1937 2.3578C10.6977 2.53054 11.2017 2.70329 11.721 2.88127C10.3369 3.6992 10.3369 3.6992 8.66636 4.4517C7.91033 4.27895 7.1543 4.1062 6.37536 3.92822C6.37536 4.44646 6.37536 4.9647 6.37536 5.49865C8.13943 5.15315 9.9035 4.80766 11.721 4.4517C11.7122 4.7675 11.7033 5.0833 11.6942 5.40868C11.6873 5.82705 11.6804 6.24542 11.6733 6.67647C11.6644 7.08944 11.6556 7.50241 11.6464 7.9279C11.7181 9.11425 12.0017 10.1204 12.4847 11.2569C11.9807 11.2569 11.4767 11.2569 10.9574 11.2569C10.5321 10.9222 10.1068 10.5875 9.66867 10.2426C7.37255 8.83886 5.56847 8.79829 2.55703 8.6395C2.55703 8.12126 2.55703 7.60302 2.55703 7.06907C2.30502 6.72358 2.05301 6.37809 1.79337 6.02212C4.17798 4.21546 6.83133 3.12607 10.1937 2.3578Z" fill="#4E2C1E"/>
<path d="M34.5141 2.3578C34.8467 2.90318 35.1792 3.44857 35.5218 4.01048C36.8131 4.41245 36.8131 4.41245 38.041 4.56138C38.041 5.28856 38.041 6.01574 38.041 6.76496C38.8723 7.12855 39.7037 7.49214 40.5602 7.86675C40.7078 11.1485 40.7078 11.1485 40.5602 12.2739C40.0614 12.8193 39.5626 13.3647 39.0487 13.9266C39.215 12.1086 39.3812 10.2907 39.5525 8.41765C39.0537 8.23585 38.5549 8.05406 38.041 7.86675C38.041 9.13932 38.041 10.4119 38.041 11.723C37.2097 11.9048 36.3783 12.0866 35.5218 12.2739C35.5218 11.9103 35.5218 11.5467 35.5218 11.1721C36.0206 11.1721 36.5194 11.1721 37.0333 11.1721C37.1996 10.0814 37.3659 8.99058 37.5372 7.86675C35.8496 6.75086 34.5798 6.6452 32.6247 6.6961C32.1285 6.70604 31.6323 6.71598 31.1211 6.72623C30.7444 6.73901 30.3677 6.75179 29.9796 6.76496C30.1459 6.21957 30.3121 5.67419 30.4834 5.11227C32.2292 4.83958 32.2292 4.83958 34.0103 4.56138C34.1766 3.8342 34.3428 3.10701 34.5141 2.3578Z" fill="#33130D"/>
<path d="M7.74348 23.925C8.37192 24.2636 9.00037 24.6022 9.64786 24.951C10.9109 25.1512 12.1808 25.3266 13.4566 25.464C12.6187 25.6333 11.7808 25.8026 10.9175 25.977C11.1269 26.8235 11.3364 27.6699 11.5522 28.542C10.5703 28.177 10.5703 28.177 9.56851 27.8046C7.49886 27.0824 5.54676 26.7115 3.29991 26.49C3.29991 27.3365 3.29991 28.1829 3.29991 29.055C2.88095 29.055 2.46199 29.055 2.03032 29.055C0.717072 26.8076 0.717072 26.8076 0.919434 25.3358C2.03562 23.2311 5.31557 23.6958 7.74348 23.925Z" fill="#3D5147"/>
<path d="M36.7832 27.2807C36.7832 27.5452 36.7832 27.8098 36.7832 28.0824C36.3822 28.1485 35.9813 28.2146 35.5682 28.2828C34.078 28.5632 34.078 28.5632 33.7054 29.168C32.8954 29.6857 32.8954 29.6857 30.3846 29.9195C28.2733 29.9908 26.8997 29.9384 25.1199 29.4185C25.1199 28.9776 25.1199 28.5366 25.1199 28.0824C25.3337 28.2587 25.5476 28.4351 25.7679 28.6168C27.4785 28.6168 29.1891 28.6168 30.9515 28.6168C30.9515 28.2641 30.9515 27.9113 30.9515 27.5479C32.9429 27.3046 34.7103 27.2569 36.7832 27.2807Z" fill="#263034"/>
<path d="M1.32842 9.47707C1.6157 9.47707 1.90298 9.47707 2.19896 9.47707C2.19896 9.93389 2.19896 10.3907 2.19896 10.8614C3.20443 10.9375 4.20991 11.0136 5.24585 11.0921C5.38949 10.9398 5.53313 10.7875 5.68112 10.6307C5.68112 10.9352 5.68112 11.2397 5.68112 11.5535C4.53201 11.7819 3.38289 12.0103 2.19896 12.2457C2.3426 12.8548 2.48624 13.4639 2.63423 14.0914C3.20879 14.1675 3.78334 14.2437 4.37531 14.3221C4.37531 14.5505 4.37531 14.7789 4.37531 15.0143C3.80075 15.0143 3.2262 15.0143 2.63423 15.0143C2.49059 15.2427 2.34695 15.4711 2.19896 15.7064C2.19896 15.245 2.19896 14.7836 2.19896 14.3221C1.9835 14.0461 1.76804 13.7701 1.54605 13.4858C0.567586 12.1378 0.66687 10.8797 1.32842 9.47707Z" fill="#112341"/>
<path d="M5.68112 26.3853C8.21266 26.5932 9.16993 27.4809 10.8288 29.6907C11.1859 30.0884 11.543 30.4861 11.911 30.8958C12.7007 31.8943 12.7007 31.8943 12.7007 32.9961C14.3994 33.3597 16.0981 33.7233 17.8484 34.0979C17.6939 33.0071 17.5395 31.9163 17.3804 30.7925C17.6892 30.7925 17.9981 30.7925 18.3163 30.7925C18.3163 32.4286 18.3163 34.0648 18.3163 35.7505C17.853 35.7505 17.3897 35.7505 16.9124 35.7505C16.758 36.4777 16.6036 37.2049 16.4444 37.9541C16.3286 37.3406 16.3286 37.3406 16.2105 36.7146C15.3048 34.7601 14.3937 34.4806 12.7153 33.6072C11.2246 32.6488 10.4598 31.257 9.42489 29.6907C8.9616 29.5089 8.4983 29.3271 8.02097 29.1398C7.86654 29.867 7.71211 30.5942 7.553 31.3434C7.24414 30.6162 6.93528 29.889 6.61706 29.1398C6.92592 29.1398 7.23478 29.1398 7.553 29.1398C6.93528 28.2308 6.31756 27.3218 5.68112 26.3853Z" fill="#30192B"/>
<path d="M38.4735 8.58716C39.1986 8.76092 39.9238 8.93467 40.6709 9.1137C40.3399 12.9846 40.3399 12.9846 39.4692 14.3462C38.0843 15.1243 36.7581 15.2638 35.1773 15.4322C36.5661 16.9058 37.4869 17.7794 39.5722 18.0649C39.5722 18.4124 39.5722 18.7599 39.5722 19.118C38.4048 19.3154 38.4048 19.3154 36.8254 19.118C36.0829 18.4331 36.0829 18.4331 35.3147 17.5713C33.9055 16.0655 32.9852 15.7265 30.8855 15.5638C30.2513 15.5516 30.2513 15.5516 29.6044 15.5391C29.268 15.5038 28.9316 15.4685 28.5851 15.4322C28.4038 15.0847 28.2225 14.7372 28.0357 14.3791C28.6447 14.3472 29.2537 14.3153 29.8812 14.2824C30.6852 14.238 31.4892 14.1934 32.2932 14.1487C32.8944 14.1177 32.8944 14.1177 33.5078 14.086C35.4348 13.9769 37.1419 13.7767 39.0228 13.326C38.8416 11.7622 38.6603 10.1984 38.4735 8.58716Z" fill="#974F2E"/>
<path d="M6.94305 13.9266C9.3474 14.1693 9.3474 14.1693 11.1389 15.5042C12.622 17.8045 12.6014 19.3455 12.3646 21.9358C11.3689 21.295 10.3733 20.6543 9.3474 19.9942C9.09848 20.4213 8.84956 20.8485 8.5931 21.2886C4.1521 18.5101 4.1521 18.5101 3.73724 16.2727C4.2208 14.139 4.36671 14.2213 6.94305 13.9266Z" fill="#CF9433"/>
<path d="M11.7343 2.3578C12.2272 2.38297 12.7201 2.40814 13.2279 2.43407C13.2279 2.83682 13.2279 3.23957 13.2279 3.65452C13.63 3.71745 14.0321 3.78038 14.4464 3.84521C14.8745 3.98366 15.3025 4.1221 15.7435 4.26474C15.9511 4.86886 16.1586 5.47298 16.3724 6.09541C15.659 6.27161 14.9456 6.44781 14.2106 6.62936C13.4712 6.8559 12.7319 7.08245 11.9701 7.31586C11.7626 7.7186 11.5551 8.12135 11.3412 8.5363C10.9262 8.5363 10.5111 8.5363 10.0834 8.5363C9.8759 9.14042 9.66836 9.74454 9.45453 10.367C9.45453 8.75598 9.45453 7.14499 9.45453 5.48519C9.0654 5.58587 8.67627 5.68656 8.27534 5.7903C6.93892 6.09541 6.93892 6.09541 5.68112 6.09541C5.68112 5.49129 5.68112 4.88717 5.68112 4.26474C6.17402 4.18923 6.66692 4.11371 7.17476 4.03591C9.2241 3.56246 9.61474 2.45573 11.7343 2.3578Z" fill="#9C5053"/>
<path d="M16.17 0.57798C17.2124 0.57798 18.2548 0.57798 19.3288 0.57798C19.5025 0.96954 19.6762 1.3611 19.8552 1.76452C21.7741 2.29309 23.2391 2.4982 25.1199 1.76452C24.6263 2.98815 24.6263 2.98815 23.5405 4.13761C21.9237 4.17315 20.3869 3.88875 18.8023 3.54434C18.6286 4.32746 18.4548 5.11058 18.2758 5.91743C17.2334 5.52587 16.191 5.13431 15.117 4.73089C15.117 4.33933 15.117 3.94777 15.117 3.54434C14.2484 3.54434 13.3797 3.54434 12.4847 3.54434C14.0641 2.3578 14.0641 2.3578 15.6435 2.3578C15.8172 1.77046 15.991 1.18312 16.17 0.57798Z" fill="#140910"/>
<path d="M38.0687 9.47707C38.2498 9.47707 38.4308 9.47707 38.6174 9.47707C38.8181 12.5293 38.8181 12.5293 37.9633 13.7427C36.65 14.7226 35.788 14.712 34.1658 14.7479C33.6166 14.7651 33.0674 14.7823 32.5016 14.8C31.9283 14.81 31.3551 14.8201 30.7644 14.8304C25.8842 14.9118 25.8842 14.9118 21.0597 15.5952C20.8787 16.1458 20.6976 16.6964 20.511 17.2638C19.9678 17.2638 19.4247 17.2638 18.865 17.2638C18.6839 17.6309 18.5029 17.9979 18.3163 18.3761C18.7964 15.7342 18.7964 15.7342 19.4137 14.4828C21.1893 13.8828 22.5354 13.8396 24.4032 13.8093C25.3867 13.7856 25.3867 13.7856 26.39 13.7615C27.7745 13.7325 29.1591 13.7079 30.5437 13.6876C31.1993 13.6704 31.855 13.6532 32.5305 13.6355C33.132 13.6245 33.7336 13.6134 34.3534 13.6021C35.8783 13.4956 35.8783 13.4956 36.8824 12.5956C37.6138 11.5704 37.8579 10.7164 38.0687 9.47707Z" fill="#F7C690"/>
<path d="M12.4847 26.5217C13.6302 26.3399 13.6302 26.3399 14.984 26.5217C15.8691 27.7946 15.8691 27.7946 16.6501 29.4312C16.9594 29.9473 17.2687 30.4634 17.5874 30.9951C18.3163 32.3408 18.3163 32.3408 18.3163 33.5046C17.1448 33.3955 17.1448 33.3955 15.8171 32.9227C15.1402 31.4679 15.1402 31.4679 14.5674 30.0131C13.6988 29.5021 13.6988 29.5021 12.9012 29.4312C12.7638 28.4711 12.6263 27.5109 12.4847 26.5217Z" fill="#DD504A"/>
<path d="M3.305 11.2569C5.10007 11.3363 5.10007 11.3363 7.0841 11.5747C8.69513 12.5747 8.59574 13.251 8.59574 14.4351C7.59806 14.4351 6.60037 14.4351 5.57246 14.4351C5.57246 14.8547 5.57246 15.2742 5.57246 15.7064C3.70181 15.3918 3.70181 15.3918 1.79337 15.0708C1.79337 14.7561 1.79337 14.4415 1.79337 14.1173C2.79105 14.1173 3.78873 14.1173 4.81664 14.1173C4.81664 13.8027 4.81664 13.488 4.81664 13.1638C4.3178 13.1638 3.81896 13.1638 3.305 13.1638C3.305 12.5345 3.305 11.9052 3.305 11.2569Z" fill="#803632"/>
<path d="M12.4847 33.5678C15.0491 33.2997 16.2916 33.8476 18.3163 35.9128C18.1481 37.0487 18.1481 37.0487 17.8677 38.2578C17.4236 38.548 17.4236 38.548 16.9706 38.844C16.5681 38.3906 16.5681 38.3906 16.1575 37.928C15.8337 37.6499 15.5099 37.3718 15.1762 37.0853C14.7321 37.2788 14.288 37.4722 13.8305 37.6715C13.8305 36.8977 13.8305 36.1239 13.8305 35.3266C13.5344 35.3266 13.2383 35.3266 12.9333 35.3266C12.7852 35.9069 12.6372 36.4873 12.4847 37.0853C12.4847 35.9245 12.4847 34.7638 12.4847 33.5678Z" fill="#8A6D4F"/>
<path d="M26.0918 29.945C27.3068 30.2483 27.3068 30.2483 28.6837 30.9158C29.9796 33.2457 29.9796 33.2457 29.9796 34.799C29.4985 34.789 29.0174 34.779 28.5217 34.7687C27.0283 34.6709 27.0283 34.6709 26.0918 35.2844C26.0918 33.5224 26.0918 31.7604 26.0918 29.945Z" fill="#3F3559"/>
<path d="M18.3163 2.3578C19.3942 2.3578 20.4721 2.3578 21.5826 2.3578C22.4604 3.95217 22.2033 5.03977 22.0317 6.80734C21.9803 7.38856 21.929 7.96978 21.8761 8.56861C21.5826 10.0703 21.5826 10.0703 20.2761 11.2569C19.6294 11.2569 18.9826 11.2569 18.3163 11.2569C18.5319 9.29908 18.7475 7.34128 18.9696 5.32416C19.4007 5.32416 19.8319 5.32416 20.2761 5.32416C20.0605 4.9326 19.8449 4.54104 19.6228 4.13761C19.1917 4.13761 18.7605 4.13761 18.3163 4.13761C18.3163 3.55027 18.3163 2.96293 18.3163 2.3578Z" fill="#36568D"/>
<path d="M20.9638 18.3761C21.3869 18.3761 21.8099 18.3761 22.2458 18.3761C22.2458 18.7376 22.2458 19.099 22.2458 19.4714C23.515 19.2907 24.7842 19.11 26.0918 18.9238C26.0918 19.6467 26.0918 20.3695 26.0918 21.1143C24.6111 21.295 23.1304 21.4758 21.6048 21.662C21.6048 22.0234 21.6048 22.3848 21.6048 22.7572C22.4509 22.938 23.2971 23.1187 24.1688 23.3049C21.0439 25.4954 21.0439 25.4954 20.3228 25.4954C20.3056 24.4116 20.2931 23.3277 20.2827 22.2438C20.2753 21.6402 20.2679 21.0367 20.2602 20.4148C20.3228 18.9238 20.3228 18.9238 20.9638 18.3761Z" fill="#310B12"/>
<path d="M16.3725 15.7064C16.3725 17.9654 16.3725 20.2244 16.3725 22.5519C16.066 22.5519 15.7596 22.5519 15.4439 22.5519C15.4439 23.2296 15.4439 23.9073 15.4439 24.6055C14.9843 24.6055 14.5246 24.6055 14.0511 24.6055C13.3132 22.4296 13.3995 20.1292 13.5868 17.7601C14.4719 15.7714 14.7309 15.7064 16.3725 15.7064Z" fill="#331F39"/>
<path d="M31.9135 2.3578C31.9271 3.30133 31.9265 4.24576 31.9135 5.18932C31.5934 5.75563 31.5934 5.75563 30.5332 5.9326C29.2508 6.35566 28.8738 6.82977 28.0728 8.58715C27.9954 6.94377 28.0034 5.98213 28.4529 4.51683C29.518 2.63232 30.4299 2.3578 31.9135 2.3578Z" fill="#A48037"/>
<path d="M32.1179 9.47707C33.2725 9.47707 34.4272 9.47707 35.6168 9.47707C35.6168 9.90083 35.6168 10.3246 35.6168 10.7484C36.0017 10.9162 36.3866 11.084 36.7832 11.2569C31.9721 11.2569 27.161 11.2569 22.2041 11.2569C22.2041 11.173 22.2041 11.0891 22.2041 11.0026C25.4756 11.0026 28.7472 11.0026 32.1179 11.0026C32.1179 10.7509 32.1179 10.4992 32.1179 10.2398C32.1179 9.98813 32.1179 9.73641 32.1179 9.47707Z" fill="#5A4C31"/>
<path d="M35.0337 7.78892C36.2 8.21096 36.2 8.21096 36.7832 8.63299C36.5907 8.81869 36.3983 9.00439 36.2 9.19571C35.8549 9.19244 35.5099 9.18918 35.1544 9.18582C32.6997 9.17229 30.4312 9.17881 28.0357 9.47707C28.2179 8.94952 28.2179 8.94952 28.6189 8.35163C30.8211 7.6433 32.4466 7.60949 35.0337 7.78892Z" fill="#CB4F64"/>
<path d="M12.4847 29.055C13.3503 29.2108 13.3503 29.2108 14.3071 29.678C14.4048 30.0891 14.5025 30.5003 14.6032 30.9239C14.9598 32.2845 14.9598 32.2845 15.7265 32.4715C16.4657 32.6219 17.209 32.7107 17.9519 32.7927C18.0721 33.6149 18.1924 34.4372 18.3163 35.2844C14.5819 34.552 14.5819 34.552 13.3275 32.2087C12.4847 30.3009 12.4847 30.3009 12.4847 29.055Z" fill="#920D2D"/>
<path d="M17.4832 19.2661C17.7582 19.2661 18.0331 19.2661 18.3163 19.2661C18.3163 22.4964 18.3163 25.7268 18.3163 29.055C17.7665 29.055 17.2166 29.055 16.6501 29.055C16.2378 27.9783 15.8254 26.9015 15.4005 25.792C15.6754 25.792 15.9504 25.792 16.2336 25.792C16.2336 24.7153 16.2336 23.6385 16.2336 22.529C16.3711 22.529 16.5085 22.529 16.6501 22.529C16.6501 24.1442 16.6501 25.7594 16.6501 27.4235C16.9251 27.4235 17.2 27.4235 17.4832 27.4235C17.4832 24.7316 17.4832 22.0396 17.4832 19.2661Z" fill="#8F4B0F"/>
<path d="M35.6594 29.055C36.2156 29.1384 36.2156 29.1384 36.7832 29.2234C34.8393 34.4185 34.8393 34.4185 32.8954 35.2844C31.9332 34.3955 30.971 33.5065 29.9796 32.5906C30.14 32.1462 30.3003 31.7017 30.4656 31.2437C31.2674 31.466 32.0693 31.6882 32.8954 31.9172C33.0858 31.4727 33.2763 31.0282 33.4725 30.5703C34.3533 29.2234 34.3533 29.2234 35.6594 29.055Z" fill="#632418"/>
<path d="M16.6501 2.3578C17.2 2.50463 17.7498 2.65147 18.3163 2.80275C17.9039 2.80275 17.4916 2.80275 17.0667 2.80275C17.0667 3.24325 17.0667 3.68376 17.0667 4.13761C17.4791 3.99078 17.8915 3.84394 18.3163 3.69266C18.3163 4.13316 18.3163 4.57367 18.3163 5.02752C18.0414 5.02752 17.7665 5.02752 17.4832 5.02752C17.3458 6.49587 17.2083 7.96422 17.0667 9.47706C17.4791 9.6239 17.8915 9.77073 18.3163 9.92202C18.1789 10.3625 18.0414 10.803 17.8998 11.2569C17.4874 11.11 17.075 10.9632 16.6501 10.8119C16.6501 9.04991 16.6501 7.28789 16.6501 5.47247C16.2378 5.32564 15.8254 5.1788 15.4005 5.02752C15.6754 4.88069 15.9504 4.73385 16.2336 4.58257C16.5067 3.45802 16.5067 3.45802 16.6501 2.3578Z" fill="#293F56"/>
<path d="M9.04552 5.96508C9.53897 6.03653 10.0324 6.10798 10.5408 6.1816C10.5408 6.39596 10.5408 6.61031 10.5408 6.83116C10.0271 6.8574 9.51345 6.88364 8.98419 6.91067C8.31052 6.94695 7.63686 6.98324 6.94277 7.02062C5.94094 7.07337 5.94094 7.07337 4.91887 7.12719C2.89444 7.24513 2.89444 7.24513 0.821426 7.69725C1.0832 7.13626 1.37297 6.70614 2.41017 6.2222C4.59199 5.82202 6.53032 5.9121 9.04552 5.96508Z" fill="#4FB5E2"/>
<path d="M16.4939 7.69725C16.6944 7.69725 16.8949 7.69725 17.1014 7.69725C17.1178 8.83185 17.1296 9.96649 17.1394 11.1011C17.1464 11.733 17.1535 12.3648 17.1607 13.0158C17.1014 14.6385 17.1014 14.6385 16.4939 15.7064C17.0953 15.8826 17.6967 16.0588 18.3163 16.2404C16.8614 17.7884 15.6967 18.1101 13.4566 18.3761C13.755 17.196 14.1137 16.1377 14.6526 15.0223C15.3092 13.5006 15.6548 12.0701 15.9624 10.4671C16.0642 9.94606 16.166 9.42502 16.2709 8.8882C16.3445 8.49519 16.4181 8.10217 16.4939 7.69725Z" fill="#8A2C3E"/>
<path d="M12.4847 11.2569C12.4847 12.4106 12.4847 13.5643 12.4847 14.7529C9.77074 14.5222 7.05679 14.2915 4.26059 14.0537C3.9892 15.6689 3.7178 17.2841 3.43818 18.9482C3.98098 19.179 4.52377 19.4097 5.083 19.6474C3.45463 20.3397 3.45463 20.3397 1.79337 21.0459C1.88669 19.6615 1.99164 18.2777 2.10177 16.8943C2.15902 16.1237 2.21626 15.353 2.27525 14.559C2.38762 13.9308 2.5 13.3026 2.61578 12.6553C4.4912 11.8581 5.93219 11.7417 8.01284 11.5628C8.67542 11.5042 9.33801 11.4456 10.0207 11.3853C11.6623 11.2569 11.6623 11.2569 12.4847 11.2569Z" fill="#182C52"/>
<path d="M16.8987 15.7064C17.3665 15.9267 17.8343 16.1469 18.3163 16.3739C18.2438 16.7077 18.1714 17.0415 18.0967 17.3854C17.7518 19.6465 17.672 21.9133 17.578 24.2162C17.5576 24.6816 17.5371 25.1471 17.5161 25.6266C17.4662 26.7693 17.4185 27.9122 17.3712 29.055C17.0593 29.055 16.7474 29.055 16.4261 29.055C16.4124 26.9554 16.404 24.8558 16.3966 22.7562C16.3926 22.1569 16.3886 21.5577 16.3846 20.9403C16.383 20.3703 16.3815 19.8003 16.38 19.213C16.3762 18.4214 16.3762 18.4214 16.3725 17.6137C16.4261 16.3739 16.4261 16.3739 16.8987 15.7064Z" fill="#C5A15F"/>
<path d="M15.5085 11.2569C15.7936 11.4987 16.0787 11.7406 16.3725 11.9897C16.0809 12.7649 16.0809 12.7649 15.7836 13.5557C15.0802 15.6432 14.5984 17.6473 14.1316 19.9139C13.9829 20.629 13.8342 21.3441 13.6811 22.081C13.5165 22.8901 13.5165 22.8901 13.3486 23.7156C13.2061 23.7156 13.0635 23.7156 12.9167 23.7156C12.7741 19.8461 12.6316 15.9765 12.4847 11.9897C13.3486 14.1883 13.3486 14.1883 13.7806 15.6541C14.3508 14.203 14.921 12.7519 15.5085 11.2569Z" fill="#84231B"/>
<path d="M29.9796 35.2844C30.6368 35.4955 31.294 35.7066 31.9712 35.924C33.7921 36.4828 35.5076 36.8517 37.4774 37.0642C37.6836 36.7706 37.8898 36.4769 38.1022 36.1743C38.3084 36.7617 38.5146 37.349 38.727 37.9541C36.2528 37.9541 33.7785 37.9541 31.2292 37.9541C30.8168 37.0731 30.4045 36.1921 29.9796 35.2844Z" fill="#36162C"/>
<path d="M35.8112 27.2902C35.8112 27.5822 35.8112 27.8743 35.8112 28.1751C35.4237 28.2481 35.0361 28.3211 34.6368 28.3964C33.0338 28.8134 32.2904 29.2519 31.2755 29.945C30.8478 29.2636 30.4202 28.5822 29.9796 27.8802C32.0109 27.3322 33.4622 27.2308 35.8112 27.2902Z" fill="#240D08"/>
<path d="M9.2449 6.80734C9.67255 6.89544 10.1002 6.98354 10.5408 7.07432C10.5408 7.33862 10.5408 7.60292 10.5408 7.87523C10.1649 7.87902 9.78908 7.8828 9.40182 7.8867C5.44944 7.98613 3.62068 8.32372 0.821426 9.47707C1.02383 8.70565 1.23832 8.25264 2.48182 7.65832C4.80114 7.19277 6.68014 7.28845 9.2449 7.34129C9.2449 7.16509 9.2449 6.98888 9.2449 6.80734Z" fill="#1C6DC4"/>
<path d="M29.9796 19.2661C29.9796 21.3217 29.9796 23.3774 29.9796 25.4954C29.7658 24.6731 29.5519 23.8509 29.3316 23.0037C29.0109 23.4148 28.6901 23.8259 28.3597 24.2495C27.6068 24.4949 26.8506 24.7073 26.0918 24.8725C26.1987 24.4613 26.3057 24.0502 26.4158 23.6266C27.408 23.2373 27.408 23.2373 28.3597 23.0037C28.4666 21.9758 28.5735 20.948 28.6837 19.889C29.6556 19.2661 29.6556 19.2661 29.9796 19.2661Z" fill="#E1495E"/>
<path d="M28.0357 15.8734C31.4371 15.6508 31.4371 15.6508 33.2194 15.8734C35.8112 17.8242 35.8112 17.8242 35.8112 19.2661C33.4441 18.736 32.7135 18.5574 31.2755 17.1456C30.4163 16.9923 29.5523 16.8499 28.6837 16.7216C28.4698 16.4417 28.256 16.1618 28.0357 15.8734Z" fill="#404461"/>
<path d="M21.7181 8.58716C22.6803 8.58716 23.6426 8.58716 24.6339 8.58716C24.6339 8.83888 24.6339 9.09059 24.6339 9.34994C25.115 9.34994 25.5962 9.34994 26.0918 9.34994C25.6362 10.0889 25.6362 10.0889 24.6339 10.8755C22.356 11.1615 22.356 11.1615 20.2602 11.2569C20.898 9.44528 20.898 9.44528 21.7181 8.58716Z" fill="#7F3522"/>
<path d="M23.8605 27.2752C24.3514 27.2752 24.8423 27.2752 25.3481 27.2752C25.3481 28.5567 25.3481 29.8382 25.3481 31.1585C24.8572 31.1585 24.3663 31.1585 23.8605 31.1585C23.8605 33.2409 23.8605 35.3232 23.8605 37.4687C24.5969 37.6289 25.3332 37.7891 26.0918 37.9541C24.8646 37.9541 23.6374 37.9541 22.373 37.9541C22.3298 36.4474 22.3033 34.9407 22.28 33.4338C22.2675 33.0061 22.2551 32.5784 22.2422 32.1378C22.2374 31.7264 22.2326 31.315 22.2277 30.8911C22.2199 30.5124 22.2121 30.1336 22.2041 29.7434C22.373 28.7314 22.373 28.7314 23.8605 27.2752Z" fill="#6E0C1A"/>
<path d="M29.9796 33.5046C30.841 33.6194 31.7014 33.7363 32.5613 33.8542C33.2801 33.9515 33.2801 33.9515 34.0135 34.0508C35.3252 34.2674 35.3252 34.2674 36.7832 34.7759C36.7832 34.9437 36.7832 35.1115 36.7832 35.2844C33.629 35.199 32.2208 34.9315 29.9796 33.7588C29.9796 33.6749 29.9796 33.591 29.9796 33.5046Z" fill="#AD4629"/>
<path d="M8.59694 11.3236C8.59694 11.4095 8.59694 11.4954 8.59694 11.5839C6.94976 11.5839 5.30259 11.5839 3.6055 11.5839C3.6055 11.7557 3.6055 11.9275 3.6055 12.1045C4.07612 12.1904 4.54674 12.2763 5.03163 12.3648C4.561 12.3648 4.09038 12.3648 3.6055 12.3648C3.6055 12.8802 3.6055 13.3956 3.6055 13.9266C3.13488 13.9266 2.66426 13.9266 2.17938 13.9266C0.704206 12.7863 0.704206 12.7863 0.931518 12.0394C2.20268 10.9567 5.88912 11.3077 8.59694 11.3236Z" fill="#253B69"/>
<path d="M40.6709 21.0459C40.6709 21.3325 40.6709 21.6192 40.6709 21.9146C39.4864 21.9204 38.3018 21.9246 37.1173 21.9281C36.1278 21.9319 36.1278 21.9319 35.1183 21.9358C33.3814 21.9146 33.3814 21.9146 31.9235 21.6974C31.9235 21.5541 31.9235 21.4107 31.9235 21.263C34.9012 21.1448 37.6622 21.0459 40.6709 21.0459Z" fill="#65918C"/>
<path d="M17.7332 29.945C17.9256 29.945 18.1181 29.945 18.3163 29.945C18.3163 31.7747 18.3163 33.6045 18.3163 35.4898C18.0277 35.4898 17.739 35.4898 17.4416 35.4898C17.3454 36.303 17.2491 37.1162 17.15 37.9541C17.0778 37.484 17.0057 37.0138 16.9313 36.5294C16.5348 34.728 16.1832 34.0727 15.4005 33.0254C16.2665 33.2287 17.1325 33.432 18.0247 33.6415C17.9285 32.4216 17.8323 31.2018 17.7332 29.945Z" fill="#63111E"/>
<path d="M12.664 5.91743C13.7249 5.94894 14.7859 5.98044 15.8468 6.01194C16.0203 6.33131 16.1937 6.65068 16.3724 6.97973C15.478 7.18932 15.478 7.18932 14.5655 7.40314C13.9475 7.58278 13.3295 7.76243 12.6928 7.94751C12.5193 8.26688 12.3458 8.58625 12.1671 8.9153C11.8202 8.9153 11.4732 8.9153 11.1158 8.9153C10.9423 9.39435 10.7688 9.87341 10.5901 10.367C10.5244 8.73384 10.5244 8.73384 10.5901 6.97973C11.6414 6.01194 11.6414 6.01194 12.664 5.91743Z" fill="#E1CA8F"/>
<path d="M2.64381 7.69725C2.84427 7.69725 3.04474 7.69725 3.25127 7.69725C3.25127 8.48037 3.25127 9.26349 3.25127 10.0703C4.05312 10.0703 4.85497 10.0703 5.68112 10.0703C5.68112 10.364 5.68112 10.6577 5.68112 10.9602C4.67881 11.0581 3.6765 11.156 2.64381 11.2569C2.64381 11.0611 2.64381 10.8653 2.64381 10.6636C2.04242 10.7615 1.44104 10.8594 0.821426 10.9602C1.15617 9.78876 1.66541 8.78021 2.64381 7.69725Z" fill="#574675"/>
<path d="M23.5 15.7064C24.5848 15.915 25.6653 16.1527 26.7398 16.4183C27.1675 16.1834 27.5951 15.9485 28.0357 15.7064C28.0357 16.8811 28.0357 18.0558 28.0357 19.2661C26.5389 19.2661 25.0421 19.2661 23.5 19.2661C23.5 18.7962 23.5 18.3263 23.5 17.8422C23.0724 17.6073 22.6447 17.3723 22.2041 17.1303C22.6317 16.6604 23.0594 16.1905 23.5 15.7064Z" fill="#645057"/>
<path d="M25.1199 29.945C26.0821 29.945 27.0443 29.945 28.0357 29.945C27.2659 30.0805 26.4962 30.216 25.7031 30.3557C26.088 30.4912 26.4728 30.6268 26.8694 30.7664C26.8694 32.2573 26.8694 33.7483 26.8694 35.2844C26.2921 35.2844 25.7147 35.2844 25.1199 35.2844C25.1199 33.5224 25.1199 31.7604 25.1199 29.945Z" fill="#B45359"/>
<path d="M12.4847 29.945C12.2189 31.6659 12.2189 31.6659 11.6342 33.6163C9.08291 35.452 9.08291 35.452 7.22256 35.1078C6.71388 34.9185 6.20521 34.7292 5.68112 34.5342C7.41505 30.3905 8.06978 29.945 12.4847 29.945Z" fill="#357ABA"/>
<path d="M14.9145 35.2844C15.556 35.8372 16.1975 36.39 16.8584 36.9595C17.1792 36.4067 17.4999 35.8539 17.8304 35.2844C18.1341 36.3314 18.1341 36.3314 18.3163 37.5179C17.3444 38.6346 17.3444 38.6346 16.1598 38.844C14.9145 38.6346 14.9145 38.6346 14.0337 37.5179C13.8433 37.1494 13.6528 36.7808 13.4566 36.4012C13.9377 36.0326 14.4189 35.6641 14.9145 35.2844Z" fill="#773128"/>
<path d="M15.7893 18.3761C15.9817 18.3761 16.1742 18.3761 16.3725 18.3761C16.3725 19.9424 16.3725 21.5086 16.3725 23.1223C15.6027 23.3181 14.8329 23.5139 14.0398 23.7156C13.8474 22.5409 13.6549 21.3662 13.4566 20.156C14.2264 19.9602 14.9962 19.7644 15.7893 19.5627C15.7893 19.1711 15.7893 18.7796 15.7893 18.3761Z" fill="#436E87"/>
<path d="M14.5674 11.2569C14.8423 11.2569 15.1173 11.2569 15.4005 11.2569C15.2009 13.3897 14.6733 14.3052 13.3178 15.7064C13.0429 14.5644 12.7679 13.4223 12.4847 12.2457C13.172 12.2457 13.8593 12.2457 14.5674 12.2457C14.5674 11.9194 14.5674 11.5931 14.5674 11.2569Z" fill="#BC3313"/>
<path d="M25.1199 11.9127C22.8005 13.7594 22.8005 13.7594 21.4089 13.7594C21.2048 14.6735 21.0006 15.5876 20.7904 16.5295C20.178 16.5295 19.5657 16.5295 18.9348 16.5295C18.7307 17.1389 18.5266 17.7483 18.3163 18.3761C18.8575 13.9903 18.8575 13.9903 19.5533 11.9127C21.7047 10.8422 22.9297 11.2588 25.1199 11.9127Z" fill="#EBCA8B"/>
<path d="M13.4566 7.69725C14.4893 7.86411 14.4893 7.86411 15.4005 8.1422C15.4005 8.87638 15.4005 9.61055 15.4005 10.367C14.5987 10.367 13.7968 10.367 12.9707 10.367C12.6669 9.53269 12.6669 9.53269 12.4847 8.58716C12.8054 8.29349 13.1262 7.99982 13.4566 7.69725Z" fill="#3A270A"/>
<path d="M26.6993 35.2844C29.8817 35.6437 32.7578 36.2156 35.8112 37.239C35.8112 37.454 35.8112 37.669 35.8112 37.8905C34.7609 37.9083 33.7104 37.9208 32.66 37.9312C31.7826 37.9426 31.7826 37.9426 30.8875 37.9541C29.2168 37.8937 27.7169 37.6437 26.0918 37.239C26.2923 36.594 26.4928 35.949 26.6993 35.2844Z" fill="#0A0C2F"/>
<path d="M9.08291 29.055C10.0451 29.3304 10.0451 29.3304 11.0268 29.6112C11.0268 29.9783 11.0268 30.3454 11.0268 30.7236C11.3375 30.8728 11.6482 31.0219 11.9684 31.1755C12.9707 31.836 12.9707 31.836 13.4566 33.5046C12.8152 33.321 12.1737 33.1375 11.5128 32.9484C11.5128 32.3978 11.5128 31.8471 11.5128 31.2798C10.5505 31.4634 9.58832 31.6469 8.59694 31.836C8.75731 30.9183 8.91768 30.0006 9.08291 29.055Z" fill="#305470"/>
<path d="M35.035 27.3409C35.6119 27.4114 36.1888 27.4818 36.7832 27.5544C36.7832 27.7798 36.7832 28.0052 36.7832 28.2374C36.0815 28.329 35.3799 28.4205 34.657 28.5149C32.4271 28.8902 31.449 29.1336 29.9796 29.945C30.2158 28.9631 30.2158 28.9631 30.7355 27.8959C33.0034 27.2129 33.0034 27.2129 35.035 27.3409Z" fill="#9B6443"/>
<path d="M7.81939 4.13762C8.71746 4.13762 9.61553 4.13762 10.5408 4.13762C10.5408 4.72496 10.5408 5.3123 10.5408 5.91744C8.29564 5.81955 6.05046 5.72166 3.73724 5.6208C3.96176 5.32713 4.18628 5.03346 4.4176 4.73089C5.76471 4.92667 7.11181 5.12245 8.49974 5.32416C8.27523 4.9326 8.05071 4.54104 7.81939 4.13762Z" fill="#2F251D"/>
<path d="M23.0368 15.7064C23.9276 15.7155 23.9276 15.7155 24.8364 15.7248C25.432 15.7296 26.0275 15.7343 26.6411 15.7392C27.1013 15.7452 27.5615 15.7513 28.0357 15.7576C27.8219 16.1032 27.6081 16.4489 27.3878 16.805C26.9601 16.805 26.5325 16.805 26.0918 16.805C25.878 17.1506 25.6642 17.4963 25.4439 17.8524C24.9494 17.7444 24.4549 17.6364 23.9455 17.5251C22.0623 17.1538 22.0623 17.1538 20.2602 18.3761C20.9863 15.7772 20.9863 15.7772 23.0368 15.7064Z" fill="#8F9789"/>
<path d="M12.4847 26.4757C13.4566 26.3552 13.4566 26.3552 14.6053 26.4757C15.5967 27.5278 16.1685 28.4434 16.3725 29.945C16.1246 29.6428 15.8768 29.3407 15.6214 29.0294C14.5729 27.9853 13.8425 27.6255 12.4847 27.2466C12.4847 26.9922 12.4847 26.7378 12.4847 26.4757Z" fill="#EBAC73"/>
<path d="M29.9796 21.9358C30.3003 22.3763 30.6211 22.8168 30.9515 23.2706C32.5552 23.4175 34.1589 23.5643 35.8112 23.7156C35.4905 24.3029 35.1697 24.8903 34.8393 25.4954C33.2356 25.3486 31.6319 25.2017 29.9796 25.0505C29.9796 24.0226 29.9796 22.9948 29.9796 21.9358Z" fill="#984C35"/>
<path d="M3.73724 9.47707C5.38607 9.66617 5.38607 9.66617 7.20845 10.011C8.11965 10.6673 8.11965 10.6673 8.59694 11.2569C7.45144 11.2569 6.30594 11.2569 5.12573 11.2569C5.58393 11.1981 6.04213 11.1394 6.51421 11.0789C6.32248 10.7335 6.32248 10.7335 5.81997 10.367C5.13267 10.2495 4.44537 10.132 3.73724 10.011C3.73724 9.83481 3.73724 9.65861 3.73724 9.47707Z" fill="#33120C"/>
<path d="M3.95484 7.69725C4.17368 7.96155 4.39253 8.22586 4.618 8.49817C5.93105 8.49817 7.2441 8.49817 8.59694 8.49817C8.59694 9.11487 8.59694 9.73158 8.59694 10.367C6.94021 9.96714 5.37397 9.5619 3.95484 9.03211C3.66471 8.28125 3.66471 8.28125 3.95484 7.69725Z" fill="#BC8D40"/>
<path d="M17.3444 35.2844C17.6651 35.2844 17.9859 35.2844 18.3163 35.2844C18.3163 36.4591 18.3163 37.6338 18.3163 38.844C17.6748 38.844 17.0334 38.844 16.3725 38.844C16.6932 37.6694 17.0139 36.4947 17.3444 35.2844Z" fill="#2C0616"/>
<path d="M12.4847 29.055C13.408 29.214 13.408 29.214 14.4286 29.6907C14.8659 30.9223 14.8659 30.9223 15.2061 32.2333C15.591 32.6528 15.9759 33.0723 16.3725 33.5046C14.9829 33.298 14.212 33.0986 13.1165 31.6374C12.4847 30.3263 12.4847 30.3263 12.4847 29.055Z" fill="#B41C4E"/>
<path d="M28.0357 15.7064C29.0502 16.5406 29.3633 16.8217 29.9796 19.0436C29.9796 19.7043 29.9796 20.3651 29.9796 21.0459C29.613 21.0459 29.2465 21.0459 28.8688 21.0459C28.7772 19.7244 28.6855 18.4028 28.5911 17.0413C28.4078 17.0413 28.2245 17.0413 28.0357 17.0413C28.0357 16.6008 28.0357 16.1603 28.0357 15.7064Z" fill="#DCBC9F"/>
<path d="M21.7181 7.69725C23.6316 7.80849 23.6316 7.80849 25.3629 7.99389C25.6034 8.38545 25.844 8.77701 26.0918 9.18043C25.6107 9.18043 25.1296 9.18043 24.6339 9.18043C24.6339 8.98465 24.6339 8.78887 24.6339 8.58716C23.6717 8.58716 22.7095 8.58716 21.7181 8.58716C21.4776 8.88083 21.237 9.1745 20.9892 9.47707C20.5336 8.92087 20.5336 8.92087 20.2602 8.29052C20.7413 8.09474 21.2224 7.89896 21.7181 7.69725Z" fill="#A99171"/>
<path d="M20.2602 21.0459C21.0621 21.2294 21.8639 21.413 22.6901 21.6021C22.4228 21.9691 22.1555 22.3362 21.8801 22.7144C22.9492 22.898 24.0184 23.0815 25.1199 23.2706C21.1714 25.4954 21.1714 25.4954 20.2602 25.4954C20.2602 24.0271 20.2602 22.5587 20.2602 21.0459Z" fill="#540B0A"/>
<path d="M29.9796 9.47707C31.904 9.47707 33.8285 9.47707 35.8112 9.47707C35.8112 10.545 35.8112 10.545 34.8393 11.2569C33.5563 11.2569 32.2734 11.2569 30.9515 11.2569C29.9796 10.545 29.9796 10.545 29.9796 9.47707Z" fill="#9F6773"/>
<path d="M35.1343 29.055C35.6784 29.0808 36.2226 29.1066 36.7832 29.1331C35.8668 30.5757 34.9504 32.0183 34.0062 33.5046C32.6177 32.8801 32.6177 32.8801 32.097 31.6701C32.0397 31.2451 31.9825 30.82 31.9235 30.3821C33.3119 29.1331 33.3119 29.1331 35.1343 29.055Z" fill="#762730"/>
<path d="M20.9082 9.47707C21.0507 10.0277 21.1933 10.5783 21.3401 11.1456C21.6252 11.3292 21.9103 11.5127 22.2041 11.7018C21.3513 13.1049 20.9222 13.3665 19.5313 13.7528C18.9299 13.8388 18.9299 13.8388 18.3163 13.9266C18.4589 13.376 18.6014 12.8253 18.7483 12.258C19.176 12.4416 19.6036 12.6251 20.0442 12.8142C20.1066 12.3668 20.169 11.9194 20.2332 11.4585C20.4762 10.0333 20.4762 10.0333 20.9082 9.47707Z" fill="#341F2B"/>
<path d="M31.9235 15.7064C33.9991 16.0538 34.7655 16.4812 36.253 17.6494C37.5539 17.9965 37.5539 17.9965 38.727 18.1352C38.727 18.4558 38.727 18.7764 38.727 19.1067C37.4127 19.3192 37.4127 19.3192 35.6345 19.1067C34.2267 18.0735 33.0703 16.9197 31.9235 15.7064Z" fill="#AE747D"/>
<path d="M12.4847 2.3578C13.7677 2.59273 15.0506 2.82767 16.3725 3.06972C16.3725 4.00947 16.3725 4.94921 16.3725 5.91743C15.6727 5.44756 14.9729 4.97769 14.2519 4.49358C14.2519 4.0237 14.2519 3.55383 14.2519 3.06972C13.6687 3.06972 13.0855 3.06972 12.4847 3.06972C12.4847 2.83479 12.4847 2.59985 12.4847 2.3578Z" fill="#2F1823"/>
<path d="M7.04184 37.9541C8.636 38.03 10.2248 38.1299 11.8043 38.2508C12.0289 38.4465 12.2534 38.6423 12.4847 38.844C10.2395 38.844 7.99434 38.844 5.68112 38.844C6.13016 38.5504 6.57919 38.2567 7.04184 37.9541Z" fill="#9D4573"/>
<path d="M37.3386 14.8165C38.4382 14.8165 39.5379 14.8165 40.6709 14.8165C40.6709 15.0457 40.6709 15.2749 40.6709 15.5111C38.0328 15.7715 38.0328 15.7715 36.7832 15.5111C36.9665 15.2819 37.1497 15.0527 37.3386 14.8165Z" fill="#4075AE"/>
<path d="M5.19515 10.367C5.35552 10.5628 5.51589 10.7585 5.68112 10.9602C4.39816 11.0581 3.1152 11.156 1.79337 11.2569C1.95374 11.0122 2.11411 10.7674 2.27933 10.5153C3.72266 10.5887 3.72266 10.5887 5.19515 10.6636C5.19515 10.5657 5.19515 10.4678 5.19515 10.367Z" fill="#461837"/>
<path d="M8.59694 18.3761C9.45225 19.0369 10.3076 19.6977 11.1888 20.3784C11.6164 20.1582 12.0441 19.9379 12.4847 19.711C12.4847 21.0325 12.4847 22.354 12.4847 23.7156C11.2017 23.0548 9.91878 22.3941 8.59694 21.7133C8.59694 20.612 8.59694 19.5108 8.59694 18.3761Z" fill="#93401F"/>
<path d="M38.727 13.9266C38.2281 14.494 37.7292 15.0614 37.2151 15.646C35.4197 15.7266 35.4197 15.7266 33.4354 15.646C32.9364 15.2204 32.4375 14.7949 31.9235 14.3564C37.0261 13.9266 37.0261 13.9266 38.727 13.9266Z" fill="#42080B"/>
<path d="M0.821426 13.9266C1.78365 14.0734 2.74587 14.2203 3.73724 14.3716C3.73724 14.5918 3.73724 14.8121 3.73724 15.039C3.09576 15.039 2.45428 15.039 1.79337 15.039C1.633 15.2592 1.47263 15.4795 1.3074 15.7064C1.3074 15.2615 1.3074 14.8165 1.3074 14.3716C1.14703 14.2247 0.986656 14.0779 0.821426 13.9266Z" fill="#35160D"/>
<path d="M15.4005 7.69725C15.7213 7.69725 16.042 7.69725 16.3725 7.69725C16.3725 8.57826 16.3725 9.45927 16.3725 10.367C16.1319 10.367 15.8913 10.367 15.6435 10.367C15.5633 9.48597 15.4831 8.60496 15.4005 7.69725Z" fill="#C6863E"/>
<path d="M28.0357 33.5046C28.8851 33.8157 29.2648 33.9938 29.7366 34.7282C29.8168 34.9118 29.897 35.0953 29.9796 35.2844C29.3381 35.0886 28.6966 34.8928 28.0357 34.6911C28.0357 34.2996 28.0357 33.908 28.0357 33.5046Z" fill="#3867AC"/>
<path d="M3.73724 15.7064C5.2559 15.8399 5.2559 15.8399 6.97704 16.2404C7.98948 17.3416 7.98948 17.3416 8.59694 18.3761C7.26052 18.1999 5.92411 18.0237 4.54719 17.8422C4.27991 17.1374 4.01263 16.4326 3.73724 15.7064Z" fill="#4068A2"/>
<path d="M28.0357 18.3761C29.8413 19.7287 29.7571 20.878 29.9796 22.7448C29.7658 23.0652 29.5519 23.3855 29.3316 23.7156C28.904 23.5554 28.4763 23.3952 28.0357 23.2302C28.0357 21.6284 28.0357 20.0265 28.0357 18.3761Z" fill="#DD905A"/>
<path d="M15.4005 11.2569C15.7213 11.4705 16.042 11.684 16.3725 11.9041C16.0417 12.6049 16.0417 12.6049 15.7042 13.3199C14.985 14.9776 14.4421 16.5852 13.9426 18.3761C13.7822 18.3761 13.6219 18.3761 13.4566 18.3761C13.6696 15.4266 13.8699 13.4726 15.4005 11.2569Z" fill="#840F14"/>
<path d="M3.73724 11.2569C5.74187 11.5873 5.74187 11.5873 7.78699 11.9243C8.05427 12.5851 8.32155 13.2458 8.59694 13.9266C6.99324 13.9266 5.38954 13.9266 3.73724 13.9266C3.73724 13.0456 3.73724 12.1646 3.73724 11.2569Z" fill="#984160"/>
<path d="M38.7271 11.2569C38.7271 12.1379 38.7271 13.0189 38.7271 13.9266C38.0856 13.9266 37.4441 13.9266 36.7832 13.9266C36.8901 13.2658 36.997 12.6051 37.1072 11.9243C37.7551 11.2569 37.7551 11.2569 38.7271 11.2569Z" fill="#537473"/>
<path d="M3.73724 7.69725C5.07366 7.69725 6.41008 7.69725 7.78699 7.69725C8.05427 8.13775 8.32155 8.57826 8.59694 9.03211C6.99324 9.17895 5.38954 9.32578 3.73724 9.47707C3.73724 8.88973 3.73724 8.30239 3.73724 7.69725Z" fill="#E2CE8E"/>
<path d="M28.3597 2.3578C28.8943 2.94514 29.4288 3.53247 29.9796 4.13761C29.0684 5.97305 29.0684 5.97305 27.8197 7.69725C26.3348 7.47477 26.3348 7.47477 25.1199 6.80734C25.4763 6.22 25.8327 5.63266 26.1998 5.02752C26.9126 5.02752 27.6253 5.02752 28.3597 5.02752C28.3597 4.14651 28.3597 3.2655 28.3597 2.3578Z" fill="#1F1E11"/>
<path d="M37.0261 35.2844C37.5874 35.5047 38.1487 35.7249 38.727 35.9518C38.727 36.6126 38.727 37.2733 38.727 37.9541C36.4819 37.9541 34.2367 37.9541 31.9235 37.9541C31.9235 37.5136 31.9235 37.0731 31.9235 36.6193C33.6073 36.6193 35.2912 36.6193 37.0261 36.6193C37.0261 36.1788 37.0261 35.7383 37.0261 35.2844Z" fill="#3E0B08"/>
<path d="M36.7832 11.2569C37.7454 11.4771 37.7454 11.4771 38.7271 11.7018C38.7271 11.9955 38.7271 12.2892 38.7271 12.5917C38.0856 13.0322 37.4441 13.4728 36.7832 13.9266C36.7832 13.0456 36.7832 12.1646 36.7832 11.2569Z" fill="#0E2019"/>
<path d="M3.73724 4.13762C5.2559 4.22661 5.2559 4.22661 6.97704 4.49358C7.98948 5.22776 7.98948 5.22776 8.59694 5.91744C6.84037 5.7373 5.3574 5.56153 3.73724 5.20551C3.73724 4.85311 3.73724 4.5007 3.73724 4.13762Z" fill="#AF874B"/>
<path d="M36.7832 5.91743C36.7832 6.79844 36.7832 7.67945 36.7832 8.58716C36.0348 8.29349 35.2864 7.99982 34.5153 7.69725C33.0112 7.52366 31.4989 7.37153 29.9796 7.2523C29.9796 7.10546 29.9796 6.95863 29.9796 6.80734C35.0823 5.91743 35.0823 5.91743 36.7832 5.91743Z" fill="#6B333B"/>
<path d="M28.0357 21.4993C26.3195 21.8516 25.4987 22.0136 23.4798 21.8998C23.0588 21.8489 22.6378 21.7981 22.2041 21.7457C22.2041 21.5831 22.2041 21.4204 22.2041 21.2528C25.5755 20.9447 25.5755 20.9447 28.0357 21.4993Z" fill="#6B1F1F"/>
<path d="M34.8393 21.9358C36.5382 22.4024 37.2975 22.6696 38.2411 23.7712C38.4014 24.0465 38.5618 24.3218 38.727 24.6055C37.1476 24.2718 37.1476 24.2718 35.4873 23.7156C34.9608 22.7701 34.9608 22.7701 34.8393 21.9358Z" fill="#325296"/>
<path d="M16.0485 7.69725C16.1554 7.69725 16.2623 7.69725 16.3725 7.69725C16.3725 8.87193 16.3725 10.0466 16.3725 11.2569C16.2655 11.0762 16.1586 10.8954 16.0485 10.7092C15.8346 10.7092 15.6208 10.7092 15.4005 10.7092C15.6143 9.71529 15.8282 8.72133 16.0485 7.69725Z" fill="#663028"/>
<path d="M36.0815 8.58716C37.017 10.0174 37.017 10.0174 36.0815 10.8755C34.3663 11.1139 34.3663 11.1139 32.7551 11.2569C32.4806 10.8793 32.2062 10.5017 31.9235 10.1127C33.5867 9.73133 33.5867 9.73133 36.0815 9.34994C36.0815 9.09822 36.0815 8.8465 36.0815 8.58716Z" fill="#741D3B"/>
<path d="M12.4847 33.5046C13.3095 33.5046 14.1342 33.5046 14.984 33.5046C15.1214 34.0919 15.2589 34.6793 15.4005 35.2844C14.4383 35.0886 13.4761 34.8928 12.4847 34.6911C12.4847 34.2996 12.4847 33.908 12.4847 33.5046Z" fill="#BDBA9B"/>
<path d="M38.3383 4.13762C38.4666 4.13762 38.5949 4.13762 38.7271 4.13762C38.7271 5.16546 38.7271 6.19331 38.7271 7.2523C38.0856 7.39913 37.4441 7.54597 36.7832 7.69725C36.7832 7.40358 36.7832 7.10991 36.7832 6.80734C37.1681 6.80734 37.5529 6.80734 37.9495 6.80734C38.0778 5.92633 38.2061 5.04533 38.3383 4.13762Z" fill="#572519"/>
<path d="M12.4847 9.47707C12.9658 9.72878 12.9658 9.72878 13.4566 9.98559C13.4566 10.1534 13.4566 10.3212 13.4566 10.4941C13.2963 10.4941 13.1359 10.4941 12.9707 10.4941C12.8905 10.7458 12.8103 10.9975 12.7277 11.2569C12.6475 10.6695 12.5673 10.0822 12.4847 9.47707Z" fill="#DE882F"/>
<path d="M31.7075 5.91743C31.7788 6.35794 31.85 6.79844 31.9235 7.2523C31.282 7.6928 30.6405 8.13331 29.9796 8.58716C30.0509 7.9264 30.1221 7.26565 30.1956 6.58487C30.944 6.25449 30.944 6.25449 31.7075 5.91743Z" fill="#542406"/>
<path d="M15.4005 3.95231C15.4005 4.27656 15.4005 4.6008 15.4005 4.93487C13.9572 5.42124 13.9572 5.42124 12.4847 5.91743C12.5916 4.9447 12.6985 3.97197 12.8087 2.96976C13.9825 1.78307 14.3124 2.43612 15.4005 3.95231Z" fill="#865550"/>
<path d="M39.2626 7.69725C37.8047 7.69725 36.7832 6.96761 36.7832 5.92426C36.7832 4.86729 37.7849 4.13762 39.2229 4.13762C40.6907 4.13762 41.623 4.81272 41.623 5.86288V6.11518L37.9336 6.12202C38.0229 6.71528 38.4791 7.01533 39.2824 7.01533C39.9469 7.01533 40.3833 6.83804 40.5222 6.51752H41.6429C41.4346 7.254 40.542 7.69725 39.2626 7.69725ZM39.2329 4.81954C38.5188 4.81954 38.0824 5.08549 37.9634 5.59012H40.423C40.423 5.1264 39.9568 4.81954 39.2329 4.81954Z" fill="#111928"/>
<path d="M57.8781 33.9083V13.5883L57.4781 10.3483H75.9981C77.7847 10.3483 79.2114 10.5483 80.2781 10.9483C81.3714 11.3216 82.1847 11.8416 82.7181 12.5083C83.2781 13.1483 83.6381 13.9083 83.7981 14.7883C83.9847 15.6416 84.0781 16.5483 84.0781 17.5083V20.6683C84.0781 21.9483 83.8647 23.1349 83.4381 24.2283C83.0381 25.2949 82.2781 26.1616 81.1581 26.8283C80.0647 27.4683 78.4781 27.7883 76.3981 27.7883H73.6381C71.9581 27.7883 70.3847 27.7483 68.9181 27.6683C67.4781 27.5883 66.3981 27.5216 65.6781 27.4683V33.9083H57.8781ZM65.6781 22.3483H73.9581C74.8381 22.3483 75.4514 22.1749 75.7981 21.8283C76.1447 21.4816 76.3181 20.9216 76.3181 20.1483V18.1083C76.3181 17.3349 76.1581 16.7749 75.8381 16.4283C75.5181 16.0549 74.9047 15.8683 73.9981 15.8683H65.6781V22.3483ZM101.226 40.9483C98.4789 40.9483 96.2389 40.8949 94.5056 40.7883C92.7722 40.7083 91.4389 40.5883 90.5056 40.4283C89.5722 40.2683 88.9322 40.0816 88.5856 39.8683C88.2389 39.6816 88.0656 39.4949 88.0656 39.3083L90.0656 35.1083C90.3589 35.1883 91.0122 35.3349 92.0256 35.5483C93.0389 35.7883 94.5189 35.9083 96.4656 35.9083H102.506C103.199 35.9083 103.692 35.7883 103.986 35.5483C104.306 35.3083 104.452 34.8949 104.426 34.3083V32.6683C103.599 32.9083 102.439 33.1083 100.946 33.2683C99.4789 33.4016 97.7589 33.4683 95.7856 33.4683H94.6256C92.8656 33.4683 91.5456 33.2283 90.6656 32.7483C89.8122 32.2416 89.2389 31.5483 88.9456 30.6683C88.6789 29.7883 88.5456 28.7349 88.5456 27.5083V21.9083C88.5456 21.2683 88.6122 20.6016 88.7456 19.9083C88.9056 19.2149 89.1856 18.5749 89.5856 17.9883C90.0122 17.4016 90.6256 16.9216 91.4256 16.5483C92.2522 16.1749 93.3189 15.9883 94.6256 15.9883H95.8256C97.6922 15.9883 99.2122 16.0149 100.386 16.0683C101.559 16.1216 102.492 16.1883 103.186 16.2683C103.906 16.3483 104.506 16.4283 104.986 16.5083L106.026 15.9883H111.706V35.0283C111.706 36.7883 111.146 38.2149 110.026 39.3083C108.906 40.4016 107.039 40.9483 104.426 40.9483H101.226ZM97.8656 28.4283H103.186C103.799 28.4283 104.159 28.3749 104.266 28.2683C104.372 28.1616 104.426 27.8149 104.426 27.2283V21.3083C103.839 21.2549 103.266 21.2149 102.706 21.1883C102.172 21.1349 101.559 21.0949 100.866 21.0683C100.199 21.0416 99.3456 21.0283 98.3056 21.0283H97.8656C96.5856 21.0283 95.9456 21.5616 95.9456 22.6283V26.8283C95.9189 27.8949 96.5589 28.4283 97.8656 28.4283ZM114.442 33.9083L126.162 10.3883H136.562L148.242 33.9083H139.642L137.682 29.6283H125.042L122.842 33.9083H114.442ZM127.242 24.1083H135.442L131.562 15.5883H131.162L127.242 24.1083ZM163.335 40.9483C160.588 40.9483 158.348 40.8949 156.615 40.7883C154.882 40.7083 153.548 40.5883 152.615 40.4283C151.682 40.2683 151.042 40.0816 150.695 39.8683C150.348 39.6816 150.175 39.4949 150.175 39.3083L152.175 35.1083C152.468 35.1883 153.122 35.3349 154.135 35.5483C155.148 35.7883 156.628 35.9083 158.575 35.9083H164.615C165.308 35.9083 165.802 35.7883 166.095 35.5483C166.415 35.3083 166.562 34.8949 166.535 34.3083V32.6683C165.708 32.9083 164.548 33.1083 163.055 33.2683C161.588 33.4016 159.868 33.4683 157.895 33.4683H156.735C154.975 33.4683 153.655 33.2283 152.775 32.7483C151.922 32.2416 151.348 31.5483 151.055 30.6683C150.788 29.7883 150.655 28.7349 150.655 27.5083V21.9083C150.655 21.2683 150.722 20.6016 150.855 19.9083C151.015 19.2149 151.295 18.5749 151.695 17.9883C152.122 17.4016 152.735 16.9216 153.535 16.5483C154.362 16.1749 155.428 15.9883 156.735 15.9883H157.935C159.802 15.9883 161.322 16.0149 162.495 16.0683C163.668 16.1216 164.602 16.1883 165.295 16.2683C166.015 16.3483 166.615 16.4283 167.095 16.5083L168.135 15.9883H173.815V35.0283C173.815 36.7883 173.255 38.2149 172.135 39.3083C171.015 40.4016 169.148 40.9483 166.535 40.9483H163.335ZM159.975 28.4283H165.295C165.908 28.4283 166.268 28.3749 166.375 28.2683C166.482 28.1616 166.535 27.8149 166.535 27.2283V21.3083C165.948 21.2549 165.375 21.2149 164.815 21.1883C164.282 21.1349 163.668 21.0949 162.975 21.0683C162.308 21.0416 161.455 21.0283 160.415 21.0283H159.975C158.695 21.0283 158.055 21.5616 158.055 22.6283V26.8283C158.028 27.8949 158.668 28.4283 159.975 28.4283ZM182.671 14.2683C179.978 14.2683 178.631 13.1216 178.631 10.8283C178.631 9.54826 178.965 8.66826 179.631 8.18826C180.325 7.68159 181.338 7.42825 182.671 7.42825C184.085 7.42825 185.111 7.68159 185.751 8.18826C186.418 8.66826 186.751 9.54826 186.751 10.8283C186.751 13.1216 185.391 14.2683 182.671 14.2683ZM178.991 33.9083V15.9883H186.271V33.9083H178.991Z" fill="#111928"/>
</svg>
